<svg width="20" height="20" fill="none" xmlns="http://www.w3.org/2000/svg"><path fill-rule="evenodd" clip-rule="evenodd" d="M9.75 1.5c-1.81 0-3.277 1.455-3.277 3.25V5h6.554v-.25c0-1.795-1.467-3.25-3.277-3.25zM14.54 5v-.25C14.54 2.127 12.394 0 9.75 0S4.96 2.127 4.96 4.75V5H2.619a1.76 1.76 0 00-1.76 1.616l-.853 11a1.756 1.756 0 001.76 1.884h15.97a1.756 1.756 0 001.76-1.884l-.853-11A1.759 1.759 0 0016.882 5H14.54zm-1.513 1.5v2.25c0 .414.338.75.756.75a.753.753 0 00.756-.75V6.5h2.343c.132 0 .241.1.252.23l.853 11a.25.25 0 01-.252.27H1.765a.25.25 0 01-.252-.27l.853-11c.01-.13.12-.23.252-.23H4.96v2.25c0 .414.338.75.756.75a.753.753 0 00.756-.75V6.5h6.554z" fill="#fff"/></svg>