<svg width="14" height="14" fill="none" xmlns="http://www.w3.org/2000/svg"><path opacity=".5" d="M7 0c1.995 0 3.66.583 4.996 1.75C13.332 2.917 14 4.44 14 6.323c0 1.185-.348 2.173-1.044 2.963-.697.79-1.76 1.186-3.19 1.186h-.65a4.946 4.946 0 01-.564-.113 1.119 1.119 0 01-.508-.282 1.332 1.332 0 01-.282-.565 2.85 2.85 0 01-.96.79c-.395.207-.78.31-1.157.31-.828 0-1.486-.262-1.976-.79-.489-.545-.734-1.279-.734-2.201 0-1.242.377-2.268 1.13-3.077.771-.809 1.693-1.213 2.766-1.213.79 0 1.354.207 1.693.62.019-.225.141-.338.367-.338h1.27c.226 0 .405.085.537.254.131.15.178.339.14.564l-.677 3.416c-.056.244-.066.442-.028.593.057.15.198.235.424.254.489-.057.884-.32 1.185-.79a2.87 2.87 0 00.451-1.581c0-1.393-.498-2.494-1.495-3.303C9.7 2.211 8.468 1.806 7 1.806c-1.43 0-2.653.509-3.67 1.525C2.316 4.347 1.807 5.57 1.807 7c0 1.43.509 2.653 1.525 3.67C4.347 11.684 5.57 12.193 7 12.193a5.054 5.054 0 002.794-.819.62.62 0 01.48-.085c.17.02.31.094.424.226l.282.339a.68.68 0 01.141.564.691.691 0 01-.31.452A6.803 6.803 0 017 14c-1.938 0-3.594-.677-4.968-2.032C.677 10.594 0 8.938 0 7c0-1.938.677-3.585 2.032-4.94C3.406.687 5.062 0 7 0zm-.621 8.58c.395 0 .762-.188 1.1-.564.358-.395.537-.884.537-1.468 0-.357-.085-.64-.254-.846-.17-.207-.414-.31-.734-.31-.433 0-.818.197-1.157.592-.339.376-.508.865-.508 1.468 0 .357.094.64.282.846.188.189.433.283.734.283z" fill="#fff"/></svg>