<svg width="40" height="65" fill="none" xmlns="http://www.w3.org/2000/svg"><path d="M20 10l20 20-20 20L0 30l20-20zm3-10l3 3-3 3-3-3 3-3zM12.5 50l7.5 7.5-7.5 7.5L5 57.5l7.5-7.5zm23-40l4.5 4.5-4.5 4.5-4.5-4.5 4.5-4.5z" fill="#FF5858"/><g clip-path="url(#clip0)" fill="#fff"><path d="M27.991 32.174a14.578 14.578 0 00-.438-2.852c-.24-.905-.538-1.751-.897-2.4-1.395-2.42-2.91-2.046-4.723-1.574-.578.137-1.196.295-1.833.354h-.2c-.637-.06-1.255-.217-1.833-.354-1.814-.453-3.328-.846-4.723 1.593-.359.65-.678 1.495-.897 2.4-.24.945-.398 1.948-.438 2.853-.04 1.003.06 1.731.279 2.242.219.473.538.768.956.886.379.098.817.059 1.276-.138.777-.315 1.674-.983 2.55-1.79.618-.59 1.774-.885 2.93-.885 1.156 0 2.312.295 2.93.885.876.806 1.773 1.475 2.55 1.79.459.177.897.236 1.276.138.398-.118.737-.394.956-.905.22-.492.32-1.22.28-2.243zm-.956 1.967c-.12.276-.28.433-.479.492-.219.06-.498.02-.817-.098-.697-.275-1.514-.885-2.311-1.633-.758-.748-2.093-1.121-3.428-1.121s-2.67.373-3.448 1.082c-.817.747-1.634 1.377-2.311 1.633-.32.118-.598.177-.817.098-.2-.06-.36-.217-.479-.492-.16-.374-.239-.983-.199-1.888.04-.846.18-1.81.418-2.715.22-.846.499-1.633.838-2.223 1.095-1.948 2.371-1.633 3.886-1.24.617.158 1.255.315 1.953.374h.299c.717-.059 1.355-.216 1.972-.374 1.515-.373 2.79-.708 3.887 1.24.338.59.617 1.357.837 2.223.219.905.378 1.849.418 2.715.04.904-.04 1.514-.22 1.927z"/><path d="M18.167 28.338c-.2-.177-.439-.315-.718-.334a1.113 1.113 0 00-.319-.689l-.02-.02a1.136 1.136 0 00-.817-.334c-.319 0-.617.138-.817.334-.18.177-.319.433-.339.709-.279.02-.518.137-.717.314l-.02.02c-.22.216-.339.492-.339.807a1.154 1.154 0 001.076 1.14c.02.276.14.532.34.709.218.216.497.334.816.334.32 0 .618-.137.817-.334.18-.197.32-.433.34-.708a1.07 1.07 0 00.717-.335c.219-.216.338-.492.338-.806 0-.315-.14-.61-.338-.807zm-.499 1.102a.409.409 0 01-.299.118h-.279a.375.375 0 00-.378.373v.256a.408.408 0 01-.419.413.408.408 0 01-.418-.413v-.275a.376.376 0 00-.379-.374h-.279a.408.408 0 01-.418-.393.4.4 0 01.12-.296l.02-.02a.48.48 0 01.278-.098h.28a.376.376 0 00.378-.373v-.276a.408.408 0 01.418-.413c.12 0 .22.04.3.118l.02.02a.471.471 0 01.099.275v.276c0 .196.16.373.378.373h.28a.409.409 0 01.418.414c0 .118-.04.216-.12.295zm5.8-1.004a.693.693 0 00.697-.688.693.693 0 00-.697-.689.693.693 0 00-.698.689c0 .38.312.688.698.688zm0 2.794a.693.693 0 00.697-.689.693.693 0 00-.697-.688.693.693 0 00-.698.688c0 .38.312.689.698.689zm-1.415-1.397a.693.693 0 00.697-.688.693.693 0 00-.697-.689.693.693 0 00-.698.689c0 .38.313.688.698.688zm2.83 0a.693.693 0 00.697-.688.693.693 0 00-.697-.689.693.693 0 00-.698.689c0 .38.312.688.698.688z"/></g><defs><clipPath id="clip0"><path fill="#fff" d="M12 25h16v10.374H12z"/></clipPath></defs></svg>