<svg width="40" height="57" fill="none" xmlns="http://www.w3.org/2000/svg"><path d="M20 17l20 20-20 20L0 37l20-20zM10 0l10 10-10 10L0 10 10 0zm25.5 48l4.5 4.5-4.5 4.5-4.5-4.5 4.5-4.5z" fill="#52B814"/><g clip-path="url(#clip0)"><path fill-rule="evenodd" clip-rule="evenodd" d="M26.925 33.175a7.944 7.944 0 00-4.855-3.726 7.943 7.943 0 00-6.068.799 7.944 7.944 0 00-3.726 4.855 7.944 7.944 0 00.799 6.069 7.945 7.945 0 004.855 3.725 7.95 7.95 0 006.068-.799 7.944 7.944 0 003.726-4.855 7.945 7.945 0 00-.799-6.068zm-.005 5.852a7.117 7.117 0 01-3.338 4.35 7.117 7.117 0 01-5.436.716 7.117 7.117 0 01-4.35-3.338 7.117 7.117 0 01-.716-5.436 7.117 7.117 0 013.338-4.35 7.121 7.121 0 015.436-.716 7.117 7.117 0 014.35 3.338 7.117 7.117 0 01.716 5.436zm-3.083-2.608l-5.142-2.969a.863.863 0 00-.871 0 .862.862 0 00-.436.755v5.937a.86.86 0 00.436.754.869.869 0 00.871 0l5.142-2.968a.863.863 0 00.436-.755.863.863 0 00-.436-.755zm-.417.788l-5.141 2.968a.035.035 0 01-.039 0c-.02-.011-.02-.026-.02-.033v-5.937c0-.008 0-.023.02-.034a.04.04 0 01.02-.006c.009 0 .015.004.019.006l5.141 2.969c.007.003.02.01.02.033s-.013.03-.02.034zm-2.589-6.19a6.28 6.28 0 014.085 2.357.416.416 0 01-.659.51 5.44 5.44 0 00-3.538-2.043.417.417 0 01.112-.825z" fill="#fff"/></g><defs><clipPath id="clip0"><path fill="#fff" d="M12 29h16v16.205H12z"/></clipPath></defs></svg>