<svg width="30" height="30" fill="none" xmlns="http://www.w3.org/2000/svg"><g clip-path="url(#clip0)" fill="#2E2D42"><path d="M19.517 26.358a9.988 9.988 0 01-1.583.126H9.795a.586.586 0 00-.414.172L7.037 29a.586.586 0 00.829.828l2.172-2.172h7.896c.59 0 1.186-.047 1.769-.14a.586.586 0 00-.186-1.158zm9.841-6.605a2.242 2.242 0 00-.907-1.638 2.231 2.231 0 00-2.918.22l-.869.869v-8.907h1.507a.586.586 0 00.363-1.045L23.88 7.15V2.373a.586.586 0 00-.586-.586h-2.755a.586.586 0 00-.586.586v1.67L15.005.126a.586.586 0 00-.728 0L2.747 9.252a.586.586 0 00.364 1.045h1.507V20.54l-3.81 3.81a.586.586 0 00.828.828l3.937-3.936a6.417 6.417 0 014.567-1.892c1.16 0 2.252.452 3.073 1.273.11.11.259.172.414.172h3.843a1.033 1.033 0 010 2.063h-4.454a.586.586 0 000 1.171h5.697a6.674 6.674 0 004.75-1.967l2.899-2.898a1.066 1.066 0 011.394-.105 1.07 1.07 0 01.122 1.621L25 23.557a10.02 10.02 0 01-.949.836.586.586 0 10.718.926c.37-.287.727-.601 1.06-.933l2.876-2.877c.463-.463.7-1.103.652-1.756zM21.125 2.959h1.583v3.264L21.125 4.97V2.96zM14.64 1.333l9.845 7.792H4.796l9.845-7.792zm7.994 19.9a5.503 5.503 0 01-3.195 1.577 2.206 2.206 0 00-1.97-3.187h-3.608a5.478 5.478 0 00-3.722-1.445 7.575 7.575 0 00-4.35 1.36v-9.241h17.702v10.079l-.857.857zm-.494 4.378a.59.59 0 00-.585.586.59.59 0 00.586.586.59.59 0 00.586-.586.59.59 0 00-.586-.586z"/></g><defs><clipPath id="clip0"><path fill="#fff" d="M0 0h30v30H0z"/></clipPath></defs></svg>