<svg width="40" height="65" fill="none" xmlns="http://www.w3.org/2000/svg"><path d="M20 10l20 20-20 20L0 30l20-20zm3-10l3 3-3 3-3-3 3-3zM12.5 50l7.5 7.5-7.5 7.5L5 57.5l7.5-7.5zm23-40l4.5 4.5-4.5 4.5-4.5-4.5 4.5-4.5z" fill="#2E338B"/><g clip-path="url(#clip0)"><path d="M27.587 24.949H26.54v-.357a.308.308 0 00-.222-.308A8.682 8.682 0 0024.096 24c-1.232 0-2.911.277-4.153 1.54C18.711 24.266 17.019 24 15.79 24a8.682 8.682 0 00-2.222.284.308.308 0 00-.222.308v.354h-1.038a.308.308 0 00-.308.308v9.84a.308.308 0 00.46.269c.03-.015 3.11-1.7 7.412-.616h.074c.025.003.05.003.074 0 4.314-1.094 7.395.588 7.413.616a.308.308 0 00.462-.265v-9.84a.308.308 0 00-.308-.309zm-14.97 9.656v-9.04h.736v7.727a.308.308 0 00.354.309c.637-.098 1.28-.15 1.926-.154a7.992 7.992 0 012.63.397c-1.916-.232-3.86.03-5.647.761zm3.016-1.772c-.56.002-1.12.038-1.676.108v-8.106a8.5 8.5 0 011.826-.203c1.153 0 2.743.265 3.846 1.51l.009 7.674c-.64-.419-1.892-.983-4.005-.983zm4.621-6.692c1.103-1.232 2.693-1.51 3.845-1.51.615.003 1.227.07 1.827.204v8.106a13.563 13.563 0 00-1.666-.11c-2.102 0-3.356.563-4.006.982v-7.672zm7.022 8.464a11.33 11.33 0 00-5.66-.761 8.009 8.009 0 012.643-.397c.65.003 1.297.054 1.939.15a.308.308 0 00.354-.308v-7.724h.736l-.012 9.04z" fill="#fff"/></g><defs><clipPath id="clip0"><path fill="#fff" d="M12 24h16v11.404H12z"/></clipPath></defs></svg>