<svg width="30" height="30" fill="none" xmlns="http://www.w3.org/2000/svg"><path d="M7.106 11.147a.625.625 0 00-.849.248l-.012.023a.625.625 0 101.096.6l.012-.022a.625.625 0 00-.247-.849z" fill="#2E2D42"/><path d="M27.107 13.134a12.503 12.503 0 00-7.457-8.491A4.901 4.901 0 0015 1.25a4.89 4.89 0 00-4.65 3.395 12.472 12.472 0 00-5.56 4.392 12.415 12.415 0 00-1.9 4.098A3.129 3.129 0 000 16.25a3.128 3.128 0 002.893 3.115C4.281 24.755 9.183 28.75 15 28.75c5.817 0 10.72-3.994 12.107-9.385A3.129 3.129 0 0030 16.25a3.128 3.128 0 00-2.893-3.116zM1.25 16.25c0-.863.586-1.59 1.38-1.809a12.61 12.61 0 00-.111 1.126l-.001.016-.01.207-.002.079-.004.148a13.35 13.35 0 00.012.812l.004.088c.004.085.01.171.016.257l.01.12a13.115 13.115 0 00.027.287l.018.157.026.204.016.117a1.879 1.879 0 01-1.38-1.81zM15 2.5a3.65 3.65 0 013.031 1.63h-.037l-.024.001h-.01a3.56 3.56 0 00-2.857 5.632L15 9.765a3.636 3.636 0 01-3.632-3.633A3.636 3.636 0 0115 2.5zm11.246 14.046l-.002.046a6.962 6.962 0 01-.01.25c0 .016-.002.03-.003.046-.004.083-.01.167-.016.25l-.005.051c-.006.08-.014.161-.022.242l-.008.067a11.8 11.8 0 01-.026.221l-.013.092a10.18 10.18 0 01-.028.191l-.02.124-.027.154a9.718 9.718 0 01-.053.272C24.948 23.655 20.414 27.5 15 27.5c-5.419 0-9.954-3.85-11.015-8.96l-.028-.139-.025-.133a11.408 11.408 0 01-.033-.19l-.014-.087a11.82 11.82 0 01-.035-.242l-.006-.04c-.012-.096-.023-.19-.033-.286v-.001a11.326 11.326 0 01-.048-1.702l.005-.104.01-.158c.007-.09.014-.181.023-.271l.003-.031a11.317 11.317 0 016.314-9.043v.02c0 .447.061.88.175 1.292A9.917 9.917 0 007.36 9.797a.625.625 0 10.955.806 8.675 8.675 0 012.465-2.02 4.884 4.884 0 005.831 2.16.625.625 0 00.133-1.116 2.3 2.3 0 01-1.057-1.94 2.31 2.31 0 012.23-2.304 11.245 11.245 0 018.135 8.762l.02.107a13.243 13.243 0 01.072.456l.01.079c.024.182.044.366.059.55l.004.063c.006.07.01.141.014.212l.005.083a10.508 10.508 0 01.014.555c0 .099-.002.197-.004.296zm1.123 1.513l.02-.142a14.369 14.369 0 00.067-.628l.01-.113c.006-.087.012-.174.016-.26l.004-.085.008-.21.003-.087a12.825 12.825 0 000-.532l-.002-.09a16.103 16.103 0 00-.005-.155l-.005-.11a11.666 11.666 0 00-.034-.5l-.011-.12-.012-.124-.017-.14a11.443 11.443 0 00-.019-.154c-.007-.056-.014-.112-.023-.168.795.217 1.381.946 1.381 1.809s-.586 1.591-1.38 1.809z" fill="#2E2D42"/><path d="M12.777 16.973a2.504 2.504 0 00-2.415-1.853c-1.13 0-2.123.762-2.415 1.853a.625.625 0 101.207.324 1.252 1.252 0 011.208-.927c.564 0 1.06.381 1.207.927a.625.625 0 001.208-.324zm6.862-1.853c-1.13 0-2.123.762-2.415 1.854a.625.625 0 001.207.323 1.252 1.252 0 011.207-.927c.565 0 1.061.381 1.208.927a.625.625 0 001.207-.324 2.504 2.504 0 00-2.415-1.853zm-2.666 6.239a.625.625 0 00-.766.442 1.252 1.252 0 01-1.207.926 1.252 1.252 0 01-1.207-.926.625.625 0 10-1.208.323A2.503 2.503 0 0015 23.977c1.13 0 2.122-.762 2.415-1.853a.625.625 0 00-.442-.765z" fill="#2E2D42"/></svg>