<svg width="40" height="57" fill="none" xmlns="http://www.w3.org/2000/svg"><path d="M20 17l20 20-20 20L0 37l20-20zM10 0l10 10-10 10L0 10 10 0zm25.5 48l4.5 4.5-4.5 4.5-4.5-4.5 4.5-4.5z" fill="#3E9F4E"/><g clip-path="url(#clip0)"><path fill-rule="evenodd" clip-rule="evenodd" d="M24.98 34.56a7.05 7.05 0 012.073 4.72h.861v1.06c0 1.037-.843 1.88-1.88 1.88H13.88A1.883 1.883 0 0112 40.34v-1.06h.862a7.05 7.05 0 012.073-4.72 7.05 7.05 0 014.556-2.065v-.562h-.793V31h2.518v.933h-.793v.563a7.05 7.05 0 014.556 2.064zm1.14 4.72a6.178 6.178 0 00-6.163-5.867 6.177 6.177 0 00-6.162 5.866h12.324zm-.086 2.008a.95.95 0 00.948-.948v-.128h-14.05v.128a.95.95 0 00.948.948h12.154zm-10.449-2.73l-.923-.134c.01-.062.23-1.524 1.247-2.418l.616.7c-.754.664-.938 1.84-.94 1.853z" fill="#fff"/></g><defs><clipPath id="clip0"><path fill="#fff" d="M12 31h16v11.221H12z"/></clipPath></defs></svg>