<svg width="40" height="57" fill="none" xmlns="http://www.w3.org/2000/svg"><path d="M20 17l20 20-20 20L0 37l20-20zM10 0l10 10-10 10L0 10 10 0zm25.5 48l4.5 4.5-4.5 4.5-4.5-4.5 4.5-4.5z" fill="#11A88D"/><g clip-path="url(#clip0)"><path fill-rule="evenodd" clip-rule="evenodd" d="M13.394 30H26.47c.77 0 1.395.625 1.395 1.394v9.296c0 .769-.626 1.395-1.395 1.395h-4.034l.62 1.859h1.524a.465.465 0 110 .93h-9.295a.465.465 0 110-.93h1.524l.62-1.86h-4.035A1.396 1.396 0 0112 40.69v-9.296c0-.768.626-1.394 1.394-1.394zm5.014 12.084l-.62 1.86h4.288l-.62-1.86h-3.048zm8.062-.93a.465.465 0 00.465-.464v-.465H12.93v.465c0 .256.208.465.464.465H26.47zm-9.824-4.952l.423.422c.15.15.179.383.071.565a3.22 3.22 0 00-.344.829.465.465 0 01-.45.348h-.597v.93h1.906a2.327 2.327 0 012.277-2.789 2.327 2.327 0 012.277 2.789h1.907v-.93h-.597a.465.465 0 01-.45-.348 3.225 3.225 0 00-.345-.829.464.464 0 01.072-.564l.423-.423-.657-.658-.423.423a.465.465 0 01-.565.072 3.222 3.222 0 00-.829-.345.465.465 0 01-.348-.45v-.596h-.93v.596a.465.465 0 01-.348.45 3.2 3.2 0 00-.828.345.465.465 0 01-.565-.072l-.423-.423-.657.658zm4.6 3.094a1.396 1.396 0 00-1.314-1.86 1.396 1.396 0 00-1.314 1.86h2.629zm3.8 0h1.89v-7.902a.465.465 0 00-.466-.464H13.394a.465.465 0 00-.464.464v7.902h1.89V37.9c0-.256.208-.464.464-.464h.719a4.16 4.16 0 01.165-.398l-.508-.509a.465.465 0 010-.657l1.314-1.315a.465.465 0 01.658 0l.508.509c.13-.062.263-.118.398-.166v-.718c0-.257.208-.465.465-.465h1.859c.257 0 .465.208.465.465v.718c.135.048.268.104.398.166l.508-.509a.465.465 0 01.657 0l1.315 1.315a.465.465 0 010 .657l-.508.509c.062.13.117.262.165.398h.718c.257 0 .465.208.465.464v1.395zm-1.86-6.042c0-.77.625-1.395 1.394-1.395a1.396 1.396 0 010 2.789 1.396 1.396 0 01-1.394-1.394zm.93 0a.465.465 0 10.93-.002.465.465 0 00-.93.002z" fill="#fff"/></g><defs><clipPath id="clip0"><path fill="#fff" d="M12 30h16v14.873H12z"/></clipPath></defs></svg>