<svg width="30" height="30" fill="none" xmlns="http://www.w3.org/2000/svg"><g clip-path="url(#clip0)" fill="#2E2D42"><path d="M27.62 19.124v-6.032a6.244 6.244 0 00-3.442-5.598.586.586 0 00-.529 1.046 5.077 5.077 0 012.8 4.552v5.521a4.889 4.889 0 00-1.353-.19H23.53v-.894a3.78 3.78 0 001.606-3.09v-1.794a.586.586 0 00-.586-.586h-1.063a1.27 1.27 0 01-.94-.416c.148-.331.23-.697.23-1.082a.586.586 0 00-1.171 0 1.5 1.5 0 01-1.499 1.498h-1.952a.586.586 0 00-.586.586v1.794c0 1.27.63 2.394 1.592 3.08v.903h-1.776a3.57 3.57 0 00-1.13-.691v-4.64a5.078 5.078 0 012.795-4.549.586.586 0 10-.53-1.045 6.244 6.244 0 00-3.437 5.595v4.383h-4.164v-.867c1.195-.789 1.961-2.21 1.961-3.901V11.15a3.903 3.903 0 001.096-2.713V6.892l.195.195c.22.22.512.34.823.34.31 0 .602-.12.822-.34l2.535-2.535a2.67 2.67 0 000-3.772 2.672 2.672 0 00-3.357-.338 2.672 2.672 0 00-3.358.338 2.67 2.67 0 000 3.772l1.739 1.739H8.349a3.922 3.922 0 00-3.918 3.917v2.846c0 1.497.784 2.813 1.961 3.564v.857H4.38A4.385 4.385 0 000 21.855v5.215A2.933 2.933 0 002.93 30h24.14A2.933 2.933 0 0030 27.07v-3.744a4.905 4.905 0 00-2.38-4.202zm-15.156-15.4a1.497 1.497 0 011.057-2.552c.383 0 .766.146 1.057.437.23.23.6.23.829 0a1.497 1.497 0 012.114 0 1.497 1.497 0 010 2.115l-2.528 2.528-2.53-2.528zm6.276 10.715V13.23h1.366c.66 0 1.265-.242 1.732-.64.444.405 1.03.64 1.648.64h.477v1.208a2.614 2.614 0 01-2.612 2.611 2.614 2.614 0 01-2.611-2.611zm3.618 3.646v1.023a1.014 1.014 0 01-2.026 0v-1.027a3.773 3.773 0 002.026.004zm-7.365.587a2.397 2.397 0 012.394 2.394 2.397 2.397 0 01-2.394 2.395 2.397 2.397 0 01-2.395-2.395 2.397 2.397 0 012.395-2.394zm-9.39-8.464A2.749 2.749 0 018.35 7.463h4.454v.975a2.749 2.749 0 01-2.746 2.745H5.603v-.975zm0 2.846v-.699h4.454c.59 0 1.148-.132 1.65-.366v.718c0 1.97-1.283 3.4-3.052 3.4a3.056 3.056 0 01-3.052-3.053zm4.143 4.082v1.03a1.092 1.092 0 01-2.182 0v-1.032a4.218 4.218 0 002.182.002zM8.84 28.828H2.93a1.76 1.76 0 01-1.757-1.758v-5.215a3.212 3.212 0 013.208-3.208h2.064a2.266 2.266 0 002.211 1.782c1.083 0 1.99-.765 2.211-1.782h1.509a3.561 3.561 0 00.361 5.179 4.996 4.996 0 00-2.346 1.955h-6.18a.586.586 0 000 1.172H8.84v1.875zm1.944 0h-.773v-1.875h.773a.939.939 0 010 1.875zm6.53 0h-4.641a2.112 2.112 0 00-.982-2.841 3.824 3.824 0 012.921-1.354h.763a3.82 3.82 0 012.92 1.353 2.112 2.112 0 00-.98 2.842zm2.662 0h-.773a.939.939 0 010-1.875h.773v1.875zm8.853-1.758a1.76 1.76 0 01-1.758 1.758h-5.924v-1.875h4.628a.586.586 0 000-1.172h-6.18a4.997 4.997 0 00-2.345-1.955 3.56 3.56 0 00.99-4.232h.976a2.188 2.188 0 002.13 1.699 2.188 2.188 0 002.13-1.699h1.621a3.736 3.736 0 013.732 3.732v3.744z"/><path d="M21.348 7.991a.59.59 0 00.414-.172.59.59 0 00-.414-1 .59.59 0 00-.414 1 .59.59 0 00.414.172z"/></g><defs><clipPath id="clip0"><path fill="#fff" d="M0 0h30v30H0z"/></clipPath></defs></svg>