<svg width="40" height="65" fill="none" xmlns="http://www.w3.org/2000/svg"><path d="M20 10l20 20-20 20L0 30l20-20zm3-10l3 3-3 3-3-3 3-3zM12.5 50l7.5 7.5-7.5 7.5L5 57.5l7.5-7.5zm23-40l4.5 4.5-4.5 4.5-4.5-4.5 4.5-4.5z" fill="#60B1CB"/><path d="M27.882 29.563a7.97 7.97 0 00-7.382-6.58v-.514a.469.469 0 00-.938 0v.514c-3.708.216-6.81 2.963-7.444 6.58A.886.886 0 0012 30c0 .259.21.469.469.469.177 0 .486-.125.526-.435l.013-.09c.208-.162.824-.413 1.805-.413 1.144 0 1.793.341 1.875.487a.47.47 0 00.468.451.469.469 0 00.49-.444c.171-.151.827-.418 1.916-.48v6.58c0 1.034.842 1.875 1.875 1.875a1.877 1.877 0 001.875-1.875v-.469a.469.469 0 00-.937 0v.469a.939.939 0 01-1.875 0v-6.58c1.059.062 1.69.324 1.854.473v.005a.469.469 0 00.468.447.472.472 0 00.49-.452c.082-.146.731-.487 1.875-.487.981 0 1.597.25 1.805.414l.012.082c.038.296.336.442.527.442.26 0 .469-.21.469-.469a.885.885 0 00-.118-.437zm-11.097-.6c-.578-.268-1.326-.37-1.973-.37a5.46 5.46 0 00-1.543.209c.738-2.302 2.638-4.068 4.982-4.67-.882 1.289-1.306 3.273-1.466 4.83zm3.246-.37c-.74 0-1.611.094-2.3.345.345-3.155 1.45-5.032 2.3-5.032.882 0 1.912 1.976 2.239 5.021-.615-.226-1.428-.333-2.239-.333zm5.157 0c-.645 0-1.392.1-1.972.37-.154-1.544-.56-3.54-1.419-4.831a7.06 7.06 0 014.935 4.67 5.46 5.46 0 00-1.544-.208z" fill="#fff"/></svg>