<svg width="61" height="61" fill="none" xmlns="http://www.w3.org/2000/svg"><g clip-path="url(#clip0)" fill="#2E338B"><path d="M24.348 5.618C-.047 8.842 2.79 8.457 1.196 8.712a1.242 1.242 0 00-1.05 1.232v19.124c0 .69.558 1.248 1.247 1.248h.002c7.62-.006 15.315-.206 23.117-.212a1.25 1.25 0 001.247-1.247V6.855c0-.755-.666-1.335-1.41-1.237zm-.345 22.731c-7.474.014-14.812.197-22.102.211V10.377c1.036-.167-1.509.178 22.102-2.942v20.914zm.477 2.565c-6.762.167-23.204-.01-23.087-.01-.689 0-1.247.559-1.247 1.248V51.27a1.25 1.25 0 001.08 1.236c.123.017 22.983 3.108 23.285 3.108.687 0 1.248-.557 1.248-1.247V32.16c0-.711-.59-1.263-1.278-1.246zm-.477 22.873c-7.586-1-14.96-1.996-22.102-2.962V32.671c7.27.014 14.617.169 22.102 0v21.116zM58.63.513c-4.876.696-9.62 1.365-14.357 2.057a.878.878 0 00.254 1.737c4.523-.66 9.007-1.294 13.772-1.974v25.803c-9.85.01-19.932.201-29.77.212V6.764c1.745-.26 4.53-.75 11.905-1.852a.878.878 0 10-.26-1.736c-7.39 1.105-10.01 1.57-12.337 1.916-.607.09-1.064.62-1.064 1.234v22.53c0 .689.557 1.247 1.247 1.247 9.663 0 20.627-.208 30.788-.212.687 0 1.246-.56 1.246-1.247V1.747c0-.758-.673-1.341-1.425-1.234zm.546 45.185a.878.878 0 00.878-.877V32.365a1.25 1.25 0 00-1.247-1.248H28.02c-.688 0-1.247.56-1.247 1.248v22.527c0 .618.46 1.149 1.071 1.235 10.139 1.444 20.61 2.71 30.764 4.356a1.247 1.247 0 001.446-1.23V48.916a.878.878 0 10-1.755 0v9.74c-9.852-1.581-19.944-2.811-29.77-4.204v-21.58h29.77v11.949c0 .485.393.877.877.877z"/></g><defs><clipPath id="clip0"><path d="M.1.5h60v60H.1V.5z" fill="#fff"/></clipPath></defs></svg>