<svg width="61" height="61" fill="none" xmlns="http://www.w3.org/2000/svg"><g clip-path="url(#clip0)" fill="#2E338B"><path d="M44.249 56.629a3.875 3.875 0 003.87-3.87 3.875 3.875 0 00-3.87-3.872 3.875 3.875 0 00-3.871 3.871 3.875 3.875 0 003.87 3.871zm0-5.806c1.067 0 1.935.868 1.935 1.935a1.937 1.937 0 01-1.935 1.935 1.937 1.937 0 01-1.936-1.935c0-1.067.868-1.935 1.936-1.935zm-20.323-1.936a3.875 3.875 0 00-3.87 3.871 3.875 3.875 0 003.87 3.871 3.875 3.875 0 003.871-3.87 3.875 3.875 0 00-3.87-3.872zm0 5.806a1.937 1.937 0 01-1.935-1.935c0-1.067.868-1.935 1.935-1.935 1.068 0 1.936.868 1.936 1.935a1.937 1.937 0 01-1.936 1.935z"/><path d="M60.7 33.403V4.371H43.17l.091-.746A2.796 2.796 0 0040.487.5h-1.902l-.624 3.871h-7.747L29.587.5h-1.902a2.796 2.796 0 00-2.772 3.129l.089.742H.7v29.032h27.823l.23 1.907L27.539 42a3.67 3.67 0 01-3.612 3.015c-4.269 0-7.742 3.473-7.742 7.742s3.473 7.742 7.742 7.742h.153a7.735 7.735 0 007.614-6.346l2.394-12.356 2.393 12.345a7.738 7.738 0 007.616 6.357h.153c4.268 0 7.741-3.473 7.741-7.742s-3.473-7.742-7.741-7.742a3.67 3.67 0 01-3.612-3.013l-1.216-6.693.23-1.907h21.05zm-26.129 4.839a2.907 2.907 0 01-2.903-2.903c0-1.6 1.303-2.904 2.903-2.904a2.905 2.905 0 012.9 2.872l-.006.06.005.027a2.904 2.904 0 01-2.899 2.848zM27.797 6.306v1.936h-1.936V6.306h1.936zm6.418 21.29H22.958V10.178h14.068l-2.811 17.42zm-.612-19.354V6.306h1.936v1.936h-1.936zm-1.935 0h-1.935V6.306h1.935v1.936zm-7.742 0h-1.935V6.306h1.935v1.936zm-3.871 0h-1.936V6.306h1.936v1.936zm-3.87 0h-1.936V6.306h1.935v1.936zm-3.872 0h-1.935V6.306h1.935v1.936zm-3.87 0H6.506V6.306h1.935v1.936zm1.935 1.935v3.871h1.935v-3.87h8.71v17.419h-8.71V15.984h-1.935v11.613H2.636v-17.42h7.742zM8.442 29.532v1.936H6.507v-1.936h1.935zm1.936 0h1.935v1.936h-1.935v-1.936zm3.87 0h1.936v1.936H14.25v-1.936zm3.871 0h1.936v1.936h-1.936v-1.936zm3.872 0h1.935v1.936h-1.935v-1.936zm3.87 0h1.936v1.936h-1.936v-1.936zm3.872 0h4.17l-.17 1.053a4.794 4.794 0 00-2.064.908v-.025h-1.936v-1.936zm12.734-19.355h6.62v12.581h1.936v-12.58h7.742v17.419h-7.742v-2.904h-1.936v2.904h-8.732l2.112-17.42zm10.491-1.935V6.306h1.936v1.936h-1.936zm-1.935 0h-1.936V6.306h1.936v1.936zm-3.871 0h-1.936V6.306h1.936v1.936zm0 21.29v1.936h-1.936v-1.936h1.936zm1.935 0h1.936v1.936h-1.936v-1.936zm3.871 0h1.936v1.936h-1.936v-1.936zm-12.838 0h3.16v1.936h-3.394l.234-1.936zm16.71 1.936v-1.936h1.935v1.936h-1.936zm1.935-23.226h-1.936V6.306h1.936v1.936zM43.28 6.306v1.936h-.58l.234-1.936h.346zm-3.047-3.87h.255a.858.858 0 01.85.96l-3.447 28.44a4.834 4.834 0 00-2.207-1.195l4.55-28.206zm-2.76 4.954V6.306h.176l-.176 1.084zM26.836 3.401a.858.858 0 01.851-.966h.254l.313 1.936h-1.3l-.118-.97zM4.57 6.306v1.936H2.636V6.306H4.57zM2.636 29.532H4.57v1.936H2.636v-1.936zm27.157 24.265a5.805 5.805 0 01-5.714 4.768h-.153a5.812 5.812 0 01-5.806-5.807 5.812 5.812 0 015.806-5.806c2.71 0 5.03-1.936 5.515-4.604l.867-4.769a4.846 4.846 0 002.213 2.126l-2.729 14.092zm14.456-6.845a5.812 5.812 0 015.806 5.806 5.812 5.812 0 01-5.806 5.806h-.154a5.806 5.806 0 01-5.714-4.778l-2.666-13.76a4.821 4.821 0 002.35-1.356l.668 3.68a5.604 5.604 0 005.516 4.602z"/><path d="M25.861 13.207v11.359l8.52-5.679-8.52-5.68zm1.936 3.618l3.093 2.062-3.093 2.062v-4.124z"/></g><defs><clipPath id="clip0"><path d="M.7.5h60v60H.7V.5z" fill="#fff"/></clipPath></defs></svg>