<svg width="61" height="61" fill="none" xmlns="http://www.w3.org/2000/svg"><g clip-path="url(#clip0)" fill="#2E338B"><path d="M45.118 49.991h-18.15a2.19 2.19 0 00.258-1.035v-3.981c.036-.035.073-.068.108-.104l.554-.553 3.241 3.242a2.2 2.2 0 003.112-.001 2.203 2.203 0 000-3.11l-3.267-3.267.096-.114h4.044c.588 0 1.14-.23 1.555-.645l1.57-1.57a2.205 2.205 0 002.615-.373c.415-.415.644-.968.644-1.555 0-.588-.229-1.14-.644-1.555l-1.121-1.121a2.203 2.203 0 00-3.111 0l-2.42 2.42h-1.288a8.646 8.646 0 00-.015-2.101 5.367 5.367 0 002.532-4.554c0-.16-.008-.32-.022-.478a7.072 7.072 0 004.253-2.043.879.879 0 10-1.243-1.243 5.327 5.327 0 01-3.46 1.56 5.361 5.361 0 00-2.687-2.684 5.327 5.327 0 011.56-3.462.879.879 0 10-1.242-1.243 7.071 7.071 0 00-2.044 4.255 5.352 5.352 0 00-5.029 2.503 8.698 8.698 0 00-1.112-.073c-.334 0-.664.021-.99.058V25.88l2.42-2.42c.415-.415.643-.967.643-1.555 0-.587-.229-1.14-.644-1.555l-1.12-1.121a2.203 2.203 0 00-3.112 0 2.204 2.204 0 00-.373 2.615l-1.57 1.57a2.186 2.186 0 00-.644 1.555v4.043l-.115.096-3.266-3.266a2.185 2.185 0 00-1.556-.644c-.587 0-1.14.229-1.555.644a2.203 2.203 0 000 3.111l3.242 3.242-.554.553-.103.11h-3.981c-.588 0-1.14.228-1.556.643l-1.57 1.57a2.204 2.204 0 00-2.615.373A2.186 2.186 0 004.742 37c0 .587.229 1.14.644 1.555l1.121 1.12c.416.417.968.645 1.556.645.587 0 1.14-.228 1.555-.644l2.42-2.42h1.313c.001.867.18 1.734.532 2.542a3.978 3.978 0 00.114 5.5l.929.928a3.961 3.961 0 002.81 1.162 3.96 3.96 0 002.75-1.105 6.372 6.372 0 002.34.448v1.313l-1.947 1.947H3.38a1.124 1.124 0 01-1.122-1.122V25.96a.879.879 0 10-1.758 0v22.91a2.884 2.884 0 002.88 2.88h16.4a2.186 2.186 0 00.626 1.826l1.121 1.12c.416.416.968.645 1.556.645.587 0 1.14-.229 1.555-.644.707-.707.831-1.78.373-2.615l.332-.332h19.775a.879.879 0 100-1.758zm-25.539-6.363l-.982-.982 11.17-11.17c2.097 2.671 1.917 6.56-.544 9.02l-3.132 3.132a4.61 4.61 0 01-6.512 0zm13.419 2.689a.442.442 0 01-.626 0l-3.241-3.242.625-.625 3.242 3.242a.442.442 0 010 .625zm1.569-7.891a.88.88 0 00.621-.258l2.677-2.676a.443.443 0 01.625 0l1.121 1.12a.44.44 0 010 .625.443.443 0 01-.625 0l-.187-.186a.88.88 0 00-1.243 0l-2.13 2.13a.439.439 0 01-.312.129h-2.945a8.52 8.52 0 00.353-.884h2.044zm-7.047-10.96a3.608 3.608 0 015.097 0 3.58 3.58 0 011.056 2.548 3.58 3.58 0 01-1.226 2.705 8.52 8.52 0 00-1.98-3.103 8.546 8.546 0 00-3.1-1.985c.05-.056.1-.113.153-.166zm.994 2.776l-11.16 11.16-.9-.899a4.61 4.61 0 010-6.512l3.132-3.132a6.77 6.77 0 014.819-1.996c1.503 0 2.932.485 4.109 1.38zm-7.741-5.273a.44.44 0 01.129-.313l2.13-2.13a.879.879 0 000-1.242l-.187-.187a.443.443 0 01.625-.626l1.12 1.121a.44.44 0 010 .626l-2.676 2.676a.879.879 0 00-.257.622v2.04a8.468 8.468 0 00-.885.353v-2.94zm-7.007 2.741a.443.443 0 01.625-.625l3.242 3.242-.625.625-3.242-3.242zm-2.092 7.789a.88.88 0 00-.622.257l-2.677 2.677a.44.44 0 01-.625 0l-1.12-1.12a.442.442 0 01.625-.626l.186.187a.88.88 0 001.244 0l2.129-2.13a.44.44 0 01.313-.13h2.792c-.13.289-.238.584-.324.885h-1.921zm4.495 9.485l-.93-.93a2.218 2.218 0 01-.355-2.663c.104.121.212.24.327.355l3.125 3.125a6.5 6.5 0 00.512.46 2.218 2.218 0 01-2.68-.347zm7.226 8.469a.44.44 0 01-.625 0l-1.12-1.12a.44.44 0 010-.626l2.676-2.677a.88.88 0 00.258-.621v-1.922c.3-.085.596-.193.884-.323v2.791a.44.44 0 01-.13.313l-2.13 2.13a.88.88 0 000 1.243l.188.187a.442.442 0 010 .625z"/><path d="M57.62 5.66H31.234a.879.879 0 100 1.757H57.62c.619 0 1.122.504 1.122 1.123v5.788H2.258V8.54c0-.619.503-1.123 1.122-1.123h23.808a.879.879 0 100-1.757H3.38A2.884 2.884 0 00.5 8.54v13.375a.879.879 0 101.758 0v-5.83h56.484V48.87c0 .619-.503 1.122-1.122 1.122h-8.456a.879.879 0 100 1.758h8.456a2.884 2.884 0 002.88-2.88V8.54a2.884 2.884 0 00-2.88-2.88z"/><path d="M11.752 10.864c0 .486.393.88.878.88h.011a.874.874 0 00.874-.88.883.883 0 00-.885-.879.879.879 0 00-.879.88zm-2.869.009c0 .485.393.879.879.879h.01a.874.874 0 00.874-.88.884.884 0 00-.884-.878.879.879 0 00-.88.879zm-2.868.008c0 .486.393.879.879.879h.01a.874.874 0 00.874-.879.883.883 0 00-.884-.879.879.879 0 00-.88.879zm11.975-.879a.879.879 0 100 1.758h3.05a.879.879 0 100-1.758h-3.05zm28.927 13.01h.009a.879.879 0 00.008-1.757h-.02a.874.874 0 00-.873.87.884.884 0 00.876.887zm2.919.008a.879.879 0 100-1.757h-.011a.874.874 0 00-.874.879c0 .486.4.879.885.879zm3.79-.87a.879.879 0 00-.88-.878h-.01a.874.874 0 00-.874.878c0 .486.4.88.885.88a.879.879 0 00.879-.88zm-3.801 5.092h2.91a.879.879 0 100-1.758h-2.91a.879.879 0 100 1.758zm-2.911 3.651h5.822a.879.879 0 100-1.758h-5.822a.879.879 0 100 1.758zm6.7 2.771a.879.879 0 00-.878-.879h-5.822a.879.879 0 100 1.758h5.822a.879.879 0 00.879-.879z"/></g><defs><clipPath id="clip0"><path d="M.5.5h60v60H.5V.5z" fill="#fff"/></clipPath></defs></svg>