<svg width="61" height="61" fill="none" xmlns="http://www.w3.org/2000/svg"><g clip-path="url(#clip0)" fill="#2E338B"><path d="M.9 7.5v42a7.008 7.008 0 007 7h2v2a2 2 0 002.9 1.788l2.1-1.053 2.105 1.053A2 2 0 0019.9 58.5v-2h24a3 3 0 003-3v-3h12a2 2 0 002-2v-10a2 2 0 00-2-2h-12v-2h12a2 2 0 002-2v-10a2 2 0 00-2-2h-12v-2h12a2 2 0 002-2v-10a2 2 0 00-2-2h-12v-1a3 3 0 00-3-3h-36a7.008 7.008 0 00-7 7zm2 0a5 5 0 013-4.576v39.865a6.834 6.834 0 00-3 1.821V7.5zm12.9 49.946a2.012 2.012 0 00-1.79 0L11.9 58.5v-8h6v8l-2.1-1.054zm4.1-6.946h4a1 1 0 100-2h-17a1 1 0 100 2h3v4h-2a5 5 0 010-10h32.23a10.78 10.78 0 000 10H19.9v-4zm26.816-8H58.9v2h-15a3 3 0 002.816-2zm-1.816 11a1 1 0 01-1 1h-1.461a9.459 9.459 0 01-1.481-4H44.9v3zm-3.942-5a8.776 8.776 0 01.48-2H58.9v2H40.958zm17.942-10v2h-12v-2h12zm0-16v10h-12v-10h12zm-8-6v-10h3v10h-3zm8 0h-3v-10h3v10zm-10-10v10h-2v-10h2zm-4-3v38a1 1 0 01-1 1h-36v-40h36a1 1 0 011 1z"/><path d="M52.9 30.5a3 3 0 100-6 3 3 0 000 6zm0-4a1 1 0 110 2 1 1 0 010-2zm-34.346 4.675c.02.014.04.026.062.038 6.473 4.13 15.044 2.49 19.535-3.738 4.492-6.227 3.344-14.877-2.617-19.716C29.573 2.919 20.87 3.573 15.7 9.248a.963.963 0 00-.136.149 14.448 14.448 0 002.99 21.778zm-4.4-14.7a4.826 4.826 0 002.078 1.67c1.63.676 3.625.469 3.537 1.551a7.904 7.904 0 01-.627 2.163c-.914 2.337-.863 3.046-.587 4.634.21.738.223 1.518.041 2.263a12.472 12.472 0 01-4.438-12.285l-.004.004zm11.1 14.971a9.857 9.857 0 016.111-.976 12.34 12.34 0 01-6.11.972l-.001.004zm8.687-2.5a14.673 14.673 0 00-7.222-.228 10.408 10.408 0 00-4.142 2.18 12.446 12.446 0 01-2.2-.952 6.973 6.973 0 00.156-3.8c-.22-1.275-.287-1.609.479-3.564a9.56 9.56 0 00.756-2.724 2.637 2.637 0 00-1.641-2.7c-2.074-.908-4.2-.127-5.044-3.423a12.509 12.509 0 011.733-2.74 25.329 25.329 0 005.892-.726A7.755 7.755 0 0027.874 6.6c.95.114 1.884.338 2.782.667A11.465 11.465 0 0127.8 8.983a5.252 5.252 0 00-3.1 3.524c-.425 2.378 1.64 3.964 3.737 4.431 5.177 1.149 1.3 5.258 1.242 8.011A2.85 2.85 0 0032.7 27.9a6.715 6.715 0 003.742-1.488 12.59 12.59 0 01-2.5 2.533l-.001.001zM19.117 8.861a12.4 12.4 0 016.323-2.312c-1.527 1.631-3.931 2.063-6.323 2.312zm18.959 14.563c-2.556.769-3.468 2.245-5.135 2.459a1.3 1.3 0 01-1.027-.236c-.975-.876 1.213-3.466 1.213-6.2-.007-2.236-1.56-3.862-4.259-4.461-.1-.022-2.481-.571-2.2-2.125a3.321 3.321 0 011.96-2.057 12.178 12.178 0 003.987-2.636 12.449 12.449 0 015.461 15.256zM34.9 35.5h-17a1 1 0 100 2h17a1 1 0 100-2z"/></g><defs><clipPath id="clip0"><path d="M.9.5h60v60H.9V.5z" fill="#fff"/></clipPath></defs></svg>