<svg width="94" height="67" fill="none" xmlns="http://www.w3.org/2000/svg"><g clip-path="url(#clip0)"><path d="M91.574 5.575H85.42v-2.1a1.81 1.81 0 00-1.304-1.81A50.987 50.987 0 0071.066 0C63.824 0 53.96 1.63 46.664 9.05 39.425 1.558 29.487 0 22.265 0 17.86-.01 13.474.55 9.214 1.665a1.81 1.81 0 00-1.304 1.81v2.082h-6.1c-1 0-1.81.81-1.81 1.81v57.816a1.805 1.805 0 002.697 1.574c.181-.09 18.282-9.991 43.552-3.62h.434c.144.018.29.018.434 0 25.342-6.426 43.444 3.458 43.552 3.62a1.81 1.81 0 002.715-1.556V7.385c0-1-.81-1.81-1.81-1.81zM3.62 62.305V9.195h4.326v45.398a1.81 1.81 0 002.082 1.81 79.214 79.214 0 0111.313-.904A46.955 46.955 0 0136.8 57.834a66.544 66.544 0 00-33.18 4.47zm17.721-10.409a79.654 79.654 0 00-9.847.634V4.906A49.924 49.924 0 0122.228 3.71c6.77 0 16.11 1.557 22.59 8.87l.055 45.09c-3.765-2.462-11.114-5.775-23.532-5.775zM48.493 12.58c6.48-7.24 15.82-8.87 22.59-8.87 3.611.012 7.21.412 10.735 1.196V52.53a79.632 79.632 0 00-9.793-.652c-12.345 0-19.712 3.313-23.532 5.775V12.58zm41.253 49.725a66.557 66.557 0 00-33.252-4.471 47.067 47.067 0 0115.53-2.336c3.813.022 7.618.318 11.386.888a1.81 1.81 0 002.082-1.81V9.195h4.326l-.072 53.109z" fill="#2E338B"/></g><defs><clipPath id="clip0"><path fill="#fff" d="M0 0h94v67H0z"/></clipPath></defs></svg>