<svg width="84" height="66" fill="none" xmlns="http://www.w3.org/2000/svg"><g clip-path="url(#clip0)"><path d="M83.974 22.415c0 2.371-.389 4.71-1.143 6.96-3.542 16.027-34.172 35.415-35.475 36.24a2.514 2.514 0 01-1.33.385c-.465 0-.928-.117-1.335-.385-.35-.228-8.98-5.674-17.73-13.16a2.494 2.494 0 01-.278-3.503 2.508 2.508 0 013.506-.282c6.522 5.572 13.113 10.077 15.85 11.892 9.199-5.998 29.507-21.257 31.996-32.51.65-1.988.944-3.796.944-5.632A17.545 17.545 0 0069.9 7.057c-7.152-3.97-16.726-2.139-21.96 4.17-.94 1.138-2.873 1.138-3.832 0-5.248-6.313-14.816-8.13-21.959-4.177a17.537 17.537 0 00-9.097 15.36c0 1.824.309 3.64.883 5.393.37 1.642 1.076 3.246 1.974 4.911h14.51L35.4 21.263c.426-.98 1.445-1.597 2.494-1.487a2.47 2.47 0 012.197 1.905l3.668 15.508 4.745-7.78a2.477 2.477 0 012.12-1.191h9.006c1.37 0 2.484 1.11 2.484 2.486a2.488 2.488 0 01-2.484 2.486h-7.61l-7.147 11.74a2.478 2.478 0 01-4.533-.712l-3.352-14.126-2.65 6.097a2.476 2.476 0 01-2.28 1.495H3.066A2.494 2.494 0 01.58 35.199a2.495 2.495 0 012.486-2.486h7.289c-.517-1.233-.935-2.431-1.194-3.59-.694-2.012-1.069-4.354-1.069-6.713A22.504 22.504 0 0119.756 2.694C28.1-1.922 39.14-.47 46.036 6.009c6.878-6.48 17.911-7.93 26.27-3.315a22.522 22.522 0 0111.668 19.721z" fill="#F13B3B"/></g><defs><clipPath id="clip0"><path fill="#fff" d="M0 0h84v66H0z"/></clipPath></defs></svg>