<svg width="77" height="54" fill="none" xmlns="http://www.w3.org/2000/svg"><path fill-rule="evenodd" clip-rule="evenodd" d="M62.463 17.134c6.11 6.11 9.62 14.128 9.978 22.71h4.146v5.106c0 4.99-4.06 9.05-9.05 9.05H9.05C4.06 54 0 49.94 0 44.95v-5.106h4.146c.358-8.582 3.868-16.6 9.979-22.71 5.923-5.924 13.64-9.404 21.925-9.937v-2.71h-3.814V0h12.116v4.488h-3.815v2.709c8.286.533 16.002 4.013 21.926 9.937zm5.487 22.71C67.187 24.147 54.177 11.61 38.294 11.61 22.41 11.61 9.4 24.147 8.637 39.844H67.95zm-.413 9.669A4.568 4.568 0 0072.1 44.95v-.618H4.488v.618a4.568 4.568 0 004.562 4.563h58.487zM17.253 36.376l-4.44-.647c.042-.298 1.109-7.337 5.999-11.636l2.963 3.371c-3.63 3.19-4.513 8.855-4.522 8.912z" fill="#3E9F4E"/></svg>