<svg width="78" height="79" fill="none" xmlns="http://www.w3.org/2000/svg"><path fill-rule="evenodd" clip-rule="evenodd" d="M72.76 20.353C67.554 11.335 59.148 4.884 49.09 2.189 39.032-.506 28.526.877 19.508 6.084S4.04 19.697 1.345 29.754C-1.35 39.814.033 50.319 5.24 59.337c5.206 9.018 13.612 15.468 23.67 18.163a39.2 39.2 0 0010.153 1.345c6.755 0 13.422-1.771 19.429-5.24 9.017-5.206 15.468-13.612 18.163-23.67 2.695-10.058 1.312-20.563-3.895-29.581zm-.027 28.53c-2.414 9.01-8.193 16.542-16.272 21.206-8.078 4.665-17.49 5.903-26.5 3.49-9.01-2.415-16.542-8.194-21.206-16.272-4.664-8.079-5.903-17.49-3.489-26.501C7.681 21.796 13.46 14.264 21.538 9.6c5.382-3.107 11.353-4.694 17.405-4.694 3.033 0 6.088.399 9.096 1.205 9.01 2.414 16.541 8.193 21.205 16.272 4.665 8.078 5.904 17.49 3.49 26.5zM57.704 36.165L32.64 21.695a4.206 4.206 0 00-4.248 0 4.205 4.205 0 00-2.125 3.678v28.943c0 1.535.794 2.91 2.125 3.679a4.237 4.237 0 002.123.576c.73 0 1.46-.193 2.125-.576l25.064-14.471a4.206 4.206 0 002.124-3.68c0-1.535-.794-2.91-2.124-3.679zm-2.03 3.843L30.61 54.478a.168.168 0 01-.188 0c-.094-.053-.094-.127-.094-.162V25.373c0-.035 0-.108.094-.163a.192.192 0 01.097-.028c.042 0 .073.017.092.028l25.064 14.471c.03.018.095.055.095.164 0 .108-.064.145-.095.163zM43.053 9.829c7.826 1.07 15.083 5.26 19.911 11.496a2.03 2.03 0 01-3.21 2.485c-4.182-5.402-10.47-9.032-17.25-9.958a2.03 2.03 0 01.549-4.023z" fill="#52B814"/></svg>