<svg width="71" height="66" fill="none" xmlns="http://www.w3.org/2000/svg"><path fill-rule="evenodd" clip-rule="evenodd" d="M6.188 0h58.025A6.195 6.195 0 0170.4 6.188v41.25a6.195 6.195 0 01-6.188 6.187h-17.9l2.75 8.25h6.763a2.062 2.062 0 110 4.125h-41.25a2.062 2.062 0 110-4.125h6.763l2.75-8.25h-17.9A6.195 6.195 0 010 47.437V6.188A6.195 6.195 0 016.188 0zm22.249 53.625l-2.75 8.25h19.026l-2.75-8.25H28.437zM64.213 49.5a2.065 2.065 0 002.062-2.063v-2.062H4.125v2.063c0 1.136.925 2.062 2.063 2.062h58.025zM20.616 27.52l1.876 1.876c.665.665.795 1.696.318 2.506a14.313 14.313 0 00-1.53 3.678 2.063 2.063 0 01-1.997 1.545h-2.646v4.125h8.459a10.347 10.347 0 01-.209-2.063c0-5.686 4.627-10.312 10.313-10.312 5.686 0 10.313 4.626 10.313 10.313 0 .695-.071 1.386-.209 2.062h8.459v-4.125h-2.646c-.94 0-1.761-.635-1.997-1.545a14.315 14.315 0 00-1.53-3.678 2.062 2.062 0 01.318-2.506l1.876-1.876-2.917-2.917-1.876 1.877a2.063 2.063 0 01-2.506.318 14.31 14.31 0 00-3.677-1.53 2.062 2.062 0 01-1.545-1.997v-2.646h-4.125v2.646c0 .94-.636 1.761-1.546 1.996a14.322 14.322 0 00-3.677 1.53 2.062 2.062 0 01-2.506-.317l-1.877-1.877-2.916 2.917zm20.417 13.73a6.21 6.21 0 00.355-2.063A6.195 6.195 0 0035.2 33a6.195 6.195 0 00-6.188 6.188c0 .706.123 1.404.355 2.062h11.666zm16.855 0h8.387V6.187a2.065 2.065 0 00-2.063-2.062H6.188a2.065 2.065 0 00-2.062 2.063V41.25h8.387v-6.188c0-1.138.924-2.062 2.063-2.062h3.187c.213-.6.458-1.189.734-1.765l-2.255-2.256a2.062 2.062 0 010-2.917l5.833-5.834a2.064 2.064 0 012.917 0l2.256 2.256a18.37 18.37 0 011.765-.735v-3.186c0-1.14.924-2.063 2.063-2.063h8.25c1.14 0 2.063.923 2.063 2.063v3.186c.599.213 1.188.459 1.766.735l2.255-2.256a2.062 2.062 0 012.916 0l5.834 5.834a2.063 2.063 0 010 2.917l-2.255 2.255c.276.577.521 1.167.735 1.766h3.186c1.14 0 2.063.923 2.063 2.063v6.187zm-8.25-26.813a6.195 6.195 0 016.187-6.187 6.195 6.195 0 016.187 6.188 6.195 6.195 0 01-6.187 6.187 6.195 6.195 0 01-6.188-6.188zm4.124 0c0 1.138.926 2.063 2.063 2.063a2.065 2.065 0 002.062-2.063 2.065 2.065 0 00-2.062-2.062 2.065 2.065 0 00-2.063 2.063z" fill="#11A88D"/></svg>