<svg width="64" height="64" fill="none" xmlns="http://www.w3.org/2000/svg"><path d="M58.375 15h-7.63a9.326 9.326 0 001.88-5.625C52.625 4.205 48.419 0 43.25 0c-3.114 0-5.41 1.116-7.226 3.51-1.52 2.005-2.63 4.803-4.024 8.338-1.393-3.535-2.505-6.333-4.024-8.337C26.16 1.116 23.864 0 20.75 0c-5.17 0-9.375 4.206-9.375 9.375 0 2.109.7 4.057 1.88 5.625h-7.63A5.631 5.631 0 000 20.625v3.75a5.634 5.634 0 003.75 5.302v28.698A5.631 5.631 0 009.375 64h45.25a5.631 5.631 0 005.625-5.625V29.677A5.634 5.634 0 0064 24.375v-3.75A5.631 5.631 0 0058.375 15zm-22.933-1.658c2.872-7.287 3.964-9.592 7.808-9.592a5.631 5.631 0 015.625 5.625A5.631 5.631 0 0143.25 15h-8.464c.23-.577.449-1.132.656-1.658zM20.75 3.75c3.844 0 4.936 2.305 7.808 9.592.207.526.426 1.081.656 1.658H20.75a5.631 5.631 0 01-5.625-5.625A5.631 5.631 0 0120.75 3.75zm3.75 56.5H9.375A1.877 1.877 0 017.5 58.375V30h17v30.25zm0-34H5.625a1.877 1.877 0 01-1.875-1.875v-3.75c0-1.034.841-1.875 1.875-1.875H24.5v7.5zm11.25 34h-7.5v-41.5h7.5v41.5zm20.75-1.875a1.877 1.877 0 01-1.875 1.875H39.5V30h17v28.375zm3.75-34a1.877 1.877 0 01-1.875 1.875H39.5v-7.5h18.875c1.034 0 1.875.841 1.875 1.875v3.75z" fill="#BE3E9B"/></svg>