<svg width="74" height="74" fill="none" xmlns="http://www.w3.org/2000/svg"><path d="M73.453 34.98c-2.9-16.652-16.929-29.423-34.14-30.434V2.168a2.168 2.168 0 00-4.336 0v2.378C17.824 5.548 3.476 18.253.547 34.98A4.099 4.099 0 000 37c0 1.197.97 2.168 2.168 2.168.82 0 2.25-.575 2.434-2.012.018-.138.038-.274.058-.412.962-.754 3.813-1.912 8.348-1.912 5.293 0 8.294 1.578 8.673 2.25.04 1.047.834 2.024 2.166 2.088a2.168 2.168 0 002.265-2.052c.792-.702 3.826-1.938 8.865-2.225v30.435c0 4.782 3.89 8.672 8.671 8.672 4.782 0 8.672-3.89 8.672-8.672V63.16a2.168 2.168 0 00-4.336 0v2.168a4.34 4.34 0 01-4.336 4.336 4.34 4.34 0 01-4.336-4.336V34.895c4.899.287 7.82 1.5 8.573 2.189l.001.022a2.168 2.168 0 002.164 2.067c1.367 0 2.228-1.006 2.269-2.091.379-.672 3.38-2.25 8.673-2.25 4.535 0 7.386 1.158 8.349 1.912.018.127.037.254.053.382.177 1.37 1.555 2.042 2.438 2.042 1.197 0 2.168-.97 2.168-2.168 0-.524-.11-1.243-.547-2.02zm-51.321-2.776c-2.673-1.24-6.133-1.708-9.124-1.708-2.585 0-5.065.338-7.139.963C9.281 20.812 18.068 12.646 28.91 9.855 24.832 15.821 22.87 25 22.132 32.204zm15.012-1.708c-3.423 0-7.452.43-10.64 1.594C28.1 17.495 33.21 8.816 37.143 8.816c4.08 0 8.842 9.138 10.354 23.223-2.842-1.048-6.606-1.543-10.353-1.543zm23.848 0c-2.979 0-6.437.463-9.118 1.705-.712-7.138-2.587-16.368-6.563-22.34 10.729 2.793 19.435 10.958 22.825 21.6-2.075-.626-4.557-.965-7.144-.965z" fill="#60B1CB"/></svg>