<svg width="545" height="500" fill="none" xmlns="http://www.w3.org/2000/svg"><path d="M40.929 285.407c0-48.937 36.648-89.291 83.996-95.174a135.576 135.576 0 01-.684-13.576c0-74.868 60.689-135.558 135.549-135.558 64.198 0 117.929 44.628 131.947 104.559 5.155-1.942 10.752-2.956 16.635-2.714 18.07.75 33.559 13.532 38.957 30.786 2.427 7.744 2.184 15.039.53 21.776 46.825 6.347 82.921 46.466 82.921 95.034 0 1.484-.036 2.967-.11 4.449-2.03 44.487-39.884 78.973-84.422 79.164l-313.19 1.309c-48.466.198-89.849-37.221-92.04-85.627a125.725 125.725 0 01-.089-4.428z" fill="#D5EAF5"/><path d="M40.93 285.405c0-48.935 36.649-89.29 83.997-95.174a135.918 135.918 0 01-.685-13.576c0-72.22 56.469-131.247 127.645-135.321 2.611-.155 7.899-.228 7.899-.228l-6.951 333.862-9.751.029-110.016.463c-48.466.199-89.848-37.22-92.04-85.627a110.223 110.223 0 01-.096-4.428h-.001z" fill="#BFE0EF"/><path d="M506.601 272.213c3.804-6.124-5.335-9.595-9.939-12.982.99 1.485 2.122 3.492-.332 3.14-3.595-.504-10.119-4.623-11.166-7.856-1.54 1.378-2.805 3.68-3.509 5.315-.913 2.122 23.899 14.057 24.946 12.383z" fill="#30193B"/><path d="M496.33 262.381c2.454.352 3.786-.855.704-2.881-2.749-1.798-4.679-3.957-5.107-4.442-1.113-1.246-.647-3.699-.647-3.699l-2.634-1.265s-3.024 4.032-3.471 4.422c1.026 3.234 7.561 7.361 11.155 7.865z" fill="#FF97A6"/><path d="M443.889 498.627c4.517-5.631-4.128-10.176-8.303-14.094.808 1.598 1.683 3.737-.703 3.081-3.501-.951-9.492-5.812-10.129-9.14-1.702 1.17-3.224 3.291-4.118 4.832-1.17 1.997 22.026 16.862 23.253 15.321z" fill="#30193B"/><path d="M434.883 487.613c2.386.647 3.861-.409 1.055-2.767-2.51-2.14-4.175-4.518-4.545-5.032-.961-1.379-.2-3.755-.2-3.755l-2.473-1.58s-3.491 3.643-3.986 3.994c.657 3.319 6.639 8.189 10.149 9.14z" fill="#FF97A6"/><path d="M381.977 157.05s49.283-5.241 50.271-5.012c6.497 10.461 90.188-34.627 106.498-21.94 24.06 18.688-33.182 114.752-42.74 122.427-2.987 2.435-9.824-1.731-9.824-1.731-2.692-6.981 7.037-35.531 12.021-47.399 12.906-30.796 11.632-36.273 11.632-36.273l-85.651 54.856c-10.965 2.224-42.207-64.928-42.207-64.928z" fill="#30193B"/><path d="M415.615 152.685l-42.597-4.128c-45.374 65.212-18.412 83.957-10.195 97.833 5.059 8.579 66.61 72.755 66.61 72.755s-7.636 155.227-3.689 155.95c4.413.799 8.102 3.139 11.232 2.32.389-.095 44.584-101.455 42.168-177.833-1.236-38.669-53.772-86.945-54.219-91.367-1.787-17.356-9.31-55.53-9.31-55.53z" fill="#2E2D42"/><path d="M356.118 177.119c-5.118-18.033-13.866-53.572-14.323-67.543-.219-6.838-1.037-21.009 8.949-25.84 4.993-2.416 54.181-15.625 72.45-9.358 8.094 2.748 17.024 15.216 17.024 15.216s-9.435 42.949-6.543 63.301c1.15 8.008-72.878 40.695-77.557 24.224z" fill="#3C8FE8"/><path d="M471.953 128.672c4.328-1.303 11.509 32.392-11.944 42.986 0 0-29.387 8.265-36.406-47.314l27.723 25.469s13.2-18.868 20.399-21.065a1.09 1.09 0 00.228-.076z" fill="#2A76DD"/><path d="M416.717 143.889l43.016 8.541a2.655 2.655 0 002.733-1.14 2.66 2.66 0 00.395-.962l13.714-69.15a2.645 2.645 0 00-2.092-3.12l-43.015-8.54a2.667 2.667 0 00-3.13 2.102l-13.713 69.15a2.642 2.642 0 001.132 2.726c.291.193.617.327.96.393z" fill="#3B2B5B"/><path d="M419.666 144.479l40.068 7.951a2.671 2.671 0 001.999-.402 2.672 2.672 0 001.129-1.699l13.391-67.506c.285-1.426-.647-2.824-2.093-3.12l-40.085-7.951a2.664 2.664 0 00-3.12 2.104l-13.391 67.504a2.674 2.674 0 002.102 3.119z" fill="#4C4DC3"/><path d="M401.597 129.434c.352.818 1.074 1.264 1.788 1.093 1.816-.409 2.435.153 5.858-.608 0 0 5.345.218 6.515-3.082 0 0 1.521-4.717 1.093-6.239-.152-.485-1.283-1.303-1.283-1.303s5.182-3.328 4.165-4.013c-1.036-.666-8.845 2.16-11.185 4.195 0 0 2.493-2.359 1.646-3.12-.846-.78-5.916 3.566-6.657 5.849 0 0-1.465 2.159-2.416 2.958-.657.551-.18 2.806.476 4.27zm63.929-11.755c-.428-.818-.913-1.949-.419-2.32.162-.113.371-.018.591.153.019-.02.018-.058.028-.095.133-.333-.048-1.789.323-1.855.476-.115 1.151.152 1.817.523 0-.133.047-.218.218-.2 1.284.191 2.245 1.246 2.863 2.14.276.276.504.666.656 1.132.038.076.057.133.057.133l-.018-.019c1.103 3.395-.371 10.775-1.608 12.335-.913 1.112.076 3.309-.552 3.975-1.122 1.226-2.739.134-2.739.134l.428-7.324c.009-.019-1.454-5.278-1.645-8.712zm-74.886-52.03s.066 11.384-1.293 12.354c-1.36.988-5.745 1.711-7.542-1.54-1.798-3.234 2.511-12.221 2.511-12.221l6.324 1.407z" fill="#FF97A6"/><path d="M390.336 73.859c-2.615.409-5.849-1.789-8.151-4.271.333-2.006.486-1.36 1.114-2.976l7.322 1.616c-.038 1.637-.114 3.776-.285 5.63z" fill="#C95D77"/><path d="M378.031 58.865c-.409-1.693.941-7.484 2.215-12.278 1.047-3.994 5.203-6.315 9.15-5.146 6.144 1.789 12.82 4.147 14.389 5.793 2.454 2.577 1.541 6.781.932 9.92-.599 3.138-2.815 8.54-5.297 10.718-2.264 1.987-7.751 2.957-10.575 2.243-8.484-2.111-10.395-4.86-10.814-11.25z" fill="#FF97A6"/><path d="M356.118 177.114c-5.117-18.032-13.866-53.571-14.323-67.542-.219-6.838-1.036-21.01 8.95-25.84 1.778-.856 9.101-3.063 18.639-5.298a521.02 521.02 0 014.166-.932s.524 28.645 10.443 48.979c11.089 22.721 33.952 38.47 33.952 38.47s-.999.504-1.512.761c-21.864 11.07-57.138 22.615-60.315 11.402z" fill="#2A76DD"/><path d="M364.733 79.577s-12.543.857-21.255 9.883c-4.147 4.29-6.182 10.756-7.903 19.258-2.71 13.372-5.564 28.256-4.632 38.651 1.094 12.296 13.192 19.21 24.985 15.587 0 0-7.628-46.677 1.074-68.151 3.966-9.844 7.731-15.228 7.731-15.228z" fill="#2A76DD"/><path d="M400.96 121.368c-1.094-1.503-54.028 21.997-59.611 24.812-5.184 2.635-12.63 8.56-2.026 15.103 3.975 2.453 11.926 5.725 25.507 3.718 23.11-3.414 59.944-11.212 36.13-43.633z" fill="#2A76DD"/><path d="M388.215 125.695c-6.543 1.911-13.001 4.033-19.449 6.182-6.448 2.177-12.858 4.46-19.258 6.724l1.303.665c-1.589-6.162-2.473-12.611-2.901-19.021-.352-6.41-.076-12.904 1.816-19.153-1.341 2.977-2.139 6.181-2.71 9.396-.466 3.252-.628 6.543-.628 9.804.095 6.572 1.018 13.059 2.492 19.488.133.523.637.855 1.17.722l.114-.038h.028c6.382-2.359 12.773-4.679 19.116-7.133 6.344-2.454 12.659-4.917 18.907-7.636z" fill="#0156C9"/><path d="M393.437 35.633c.799-.485.561-.41 1.483-.609.581-.133.856.723.276.894-.913.276-.665.258-1.597.238-.267-.028-.4-.381-.162-.523z" fill="#FF5E4D"/><path d="M379.153 28.308c-.315-1.598-.752-3.252-1.456-4.812-.266-.542.247-.932.761-.932 1.807.133 3.367.647 4.917 1.465-.286-.647-.571-1.246-.857-1.892-.208-.543.467-1.094.99-.876 2.834 1.38 5.802 3.737 7.532 6.61 7.628-5.126 15.664-6.315 24.585-4.051.932.2.875 1.483-.076 1.636-8.312 1.265.589 1.406 2.729 2.12 1.911.609 3.147 1.227 4.755 2.206 3.861 2.226 6.696 5.555 9.53 8.903.627.78-.466 1.616-1.189 1.112-3.823-2.568-7.798-3.49-11.888-2.786-1.408-.039-1.797.055-1.113.218.2.314 4.774 2.882 5.012 3.082.666.561.238 1.483-.475 1.616-7.571 1.379-9.872 6.353-18.099 5.535-3.395-.295-6.962-1.71-10.205-2.767-6.609-3.138-9.728-1.912-13.257 4.365-1.084 2.301-2.178 4.537-3.195 6.876-.523 1.17-1.627 1.769-2.625-1.341-1.189-7.39-.038-19.04 3.624-26.287z" fill="#FF5E4D"/><path d="M383.375 24.04l-.685-1.597c-.409-.486.01-1.19.59-1.171 1.008.39 2.016 1.094 2.939 1.75 1.845 1.36 3.48 3.024 4.621 4.994a.249.249 0 00.324.094l.009-.02c4.917-3.29 10.747-5.182 16.653-4.992 1.464.038 2.929.2 4.385.41.722.151 1.445.255 2.168.446l1.075.257c.322.056.389.17.437.37a.424.424 0 01-.275.447c-.182.058-.686.134-1.019.19-.742.115-1.464.239-2.244.486l-.333.153c-.038-.076-.513.503-.313.703.076.134.176.253.294.352l.172.056c.114.038.238.095.323.115.399.113.77.172 1.141.22l2.206.313c2.92.218 5.526 1.692 7.988 3.252 2.445 1.58 4.538 3.7 6.497 5.887l1.454 1.674c.619.684.752.856.277 1.094-.295.238-.961-.466-1.636-.78a19.468 19.468 0 00-2.045-.998c-2.787-1.209-5.954-1.6-8.931-1.019l.058-.018h-.932c-.171.018-.295.018-.524.056-.038.019-.066.019-.161.076 0 0-.105.039-.161.238-.02.19.038.2.095.295.152.134.189.115.227.134l.248.075-.199-.152c1.094.893 1.978 1.284 2.995 1.912l1.464.855c.524.296.952.505.856.914-.086.465-.428.598-1.045.684-.571.114-1.123.258-1.674.428a19.03 19.03 0 00-3.187 1.303c-2.053.999-3.937 2.284-6.048 3.082-2.092.837-4.403 1.075-6.657.895 2.244.256 4.583.113 6.743-.667 2.177-.742 4.118-1.968 6.162-2.881 1.018-.486 2.064-.913 3.139-1.208.531-.164 1.071-.3 1.616-.409.457-.039 1.446-.313 1.513-1.132.161-.874-.723-1.303-1.123-1.521l-1.454-.876c-.923-.542-2.064-1.207-2.758-1.71l-.191-.153h-.019l-.181-.058s-.067-.037.029.037c.057.077.076.077.076.24-.057.2-.123.2-.123.2-.067.036-.049.036-.049.036.122-.025.247-.037.371-.037l.894.019c.029 0 .077-.019.077-.019 2.882-.504 5.858-.096 8.521 1.093.665.276 1.322.61 1.94.99l.932.58c.199.2.951.541 1.408.275.475-.152.951-.684.818-1.34-.2-.629-.524-.762-.724-1.095l-1.454-1.692c-3.814-4.499-8.826-8.75-15.017-9.472l-2.206-.276c-.352-.058-.723-.114-1.037-.19-.105-.02-.152-.056-.2-.076l-.095-.039a.181.181 0 01.095.152c.133.095-.152.447-.056.314l.189-.075c.627-.2 1.379-.353 2.102-.486.39-.076.637-.075 1.169-.218.533-.19.876-.78.781-1.322-.019-.58-.628-1.037-1.056-1.056l-1.094-.238c-.722-.19-1.464-.276-2.206-.428-1.484-.2-2.987-.351-4.498-.37-6.04-.134-12.013 1.892-16.919 5.316l.342.076c-1.265-2.006-2.977-3.642-4.898-4.955-.989-.627-1.93-1.284-3.072-1.655-.675-.038-1.084.837-.637 1.323l.723 1.54z" fill="#FF8C83"/><path d="M143.077.594l-15.316 18.702-90.45-17.559L143.075.593l.001.001z" fill="#D5EAF5"/><path d="M128.858 18.327c-1.097.967-1.587 28.882-1.587 28.882l-4.666-23.135L37.89 1.863l90.968 16.465z" fill="#AACBE8"/><path d="M92.783 35.536L127.27 47.21l-4.672-23.134-45.928.534 16.113 10.926z" fill="#92BDDD"/><path d="M122.602 24.076c-.529.153-10.259 24.79-10.259 24.79L37.306 1.738l85.296 22.339z" fill="#D5EAF5"/><path d="M23.834 444.95c-.98-3.098 10.706-12.451 15.095-14.118-1.345 1.114-3.277 3.435-1.303 4.422 2.895 1.439 8.802-.495 10.86-3.548.619 2.417.646 5.719.53 7.964-.146 2.907-22.878 12.554-25.182 5.28z" fill="#3B2B5B"/><path d="M34.173 437.804c-1.988-.986 2.762-5.446 4.102-6.552 3.485-2.283 4.427-2.447 4.929-2.75 1.346-.768 1.779-2.527 1.779-2.527l2.235-.246s-.692 1.907.584 4.148c.288.504.515 1.133.693 1.829-2.058 3.053-11.434 7.537-14.323 6.098h.001z" fill="#FF97A6"/><path d="M238.634 224.416s-44.302-.241-45.159.048c-4.842 9.876-51.801 33.023-79.063 58.103-12.384 11.398-78.939 138.43-71.218 145.924 5.049 4.926 7.077 1.56 7.077 1.56 2.05.205 76.623-95.46 95.244-109.706 13.146-10.029 51.803-32.647 51.803-32.647 9.966 1.001 41.316-63.282 41.316-63.282z" fill="#30193B"/><path d="M30.335 453.604c-.988-3.099 10.698-12.452 15.087-14.12-1.345 1.13-3.276 3.452-1.302 4.439 2.903 1.438 8.803-.495 10.86-3.548.618 2.401.644 5.704.53 7.964-.146 2.906-22.885 12.554-25.175 5.265z" fill="#3B2B5B"/><path d="M40.657 446.474c-1.988-.986 2.763-5.446 4.1-6.567 3.48-2.267 4.429-2.448 4.931-2.743 1.337-.784 1.778-2.535 1.778-2.535l2.237-.23s-.686 1.891.582 4.133c.289.504.515 1.134.694 1.844-2.057 3.053-11.434 7.538-14.322 6.098z" fill="#FF97A6"/><path d="M215.379 222.137l30.476-6.082c62.942 62.634 15.172 95.158-18.15 108.934-25.796 10.679-32.76 4.493-77.741 35.444-12.469 8.568-84.531 81.608-95.366 79.705-5.601-.984-5.139-3.567-5.777-7.496-.106-.654 64.24-107.162 84.886-123.706 27.072-21.694 70.333-33.867 72.728-42.546 3.762-13.636 8.944-44.253 8.944-44.253z" fill="#3B2B5B"/><path d="M209.242 105.923s10.747-14.849 25.681-5.696c11.149 6.804 23.61 20.136 21.181 37.553-2.428 17.416-16.71 18.829-16.71 18.829l-42.852-5.319 12.7-45.367z" fill="#FFCB48"/><path d="M200.547 151.116l.003.061a39.371 39.371 0 01-.019 4.466c-.212 13.652-7.245 38.196-20.201 53.663-16.908 20.164-15.344-10.642-15.344-10.642s9.673-25.509 14.337-38.493c2.917-8.147 20.487-22.803 21.224-9.055z" fill="#83AEDD"/><path d="M177.789 204.246c.93 19.64-35.812 48.705-59.161 62.091-2.343 1.356-5.332.592-6.788-1.685a134.195 134.195 0 01-3.723-6.135c-9.023-15.654 4.06-23.928 13.373-31.625 9.321-7.697 40.811-26.258 40.811-26.258s14.741-12.352 15.488 3.612z" fill="#83AEDD"/><path d="M185.061 172.505c-2.063 19.533-2.733 27.489 4.639 52.137 2.15 7.222 71.737 10.622 72.455 6.456a3710.11 3710.11 0 013.454-19.509c5.445-29.985 7.536-38.716 3.108-49.688-3.081-7.637-4.918-16.65-45.176-19.731-12.629-.97-29.167 3.818-33.803 5.219-7.466 2.269-3.812 16.956-4.677 25.116z" fill="#AACBE8"/><path d="M223.205 271.305l-.422 7.33-36.227 15.181-29.944-2.613 30.588-6.786 36.005-13.112z" fill="#696886"/><path d="M89.274 278.118l96.456 6.821 37.474-13.638-133.101-7.593-.829 14.41z" fill="#AFBBC6"/><path d="M181.988 214.948l-94.973-2.462-7.924.586 98.571 2.624 4.326-.748z" fill="#7F65C1"/><path d="M212.888 108.325c.051.122.11.222.169.329.315.659-.672 1.214-1.002.571a2.084 2.084 0 00-.169-.329c-.315-.652.671-1.215 1.002-.571zm-12.861 22.871c7.516-2.216 6.105-10.091 8.484-15.867 1.353-3.3 3.076-4.328 5.69-1.38.123.136-.001.352-.183.297-1.28-.395-2.941-.345-4.093.527-.856.643-1.195 3.342-1.454 4.492-.538 2.401-.768 4.877-1.748 7.155-1.221 2.866-3.377 5.207-6.619 5.335-.335.02-.37-.47-.077-.559z" fill="#FFCB48"/><path d="M219.283 142.059s-7.551 18.359-8.45 39.133c-.946 21.932 4.781 46.435 6.185 50.157 0 0-16.919.488-25.395-4.424-1.262-.731-2.188-1.864-2.571-3.27-2.256-8.115-10.764-41.391-4.13-61.001 7.584-22.467 34.361-20.595 34.361-20.595z" fill="#83AEDD"/><path d="M212.645 231.074c4.806-2.617 21.212-13.34 30.494-22.635 5.332-5.331 6.804-23.81 6.804-23.81s7.915-44.358 20.158-25.615c8.399 12.852-1.896 53.659-15.3 75.809-4.888 8.075-46.872-1.197-42.156-3.749z" fill="#D5EAF5"/><path d="M235.44 221.442s-63.654 25.317-63.683 33.912c-.027 8.619 22.197 19.552 28.674 17.329 6.484-2.222 51.811-22.015 56.444-43.89 4.318-20.379-21.435-7.351-21.435-7.351z" fill="#D5EAF5"/><path d="M88.871 285.3l97.685 8.514-8.893-78.119-98.57-2.624L88.87 285.3z" fill="#2E2D42"/><path d="M190.24 291.442l-3.684 2.37-8.893-78.118 4.325-.747 8.252 76.495z" fill="#696886"/><path d="M218.445 108.122s-5.75-11.209-14.457-9.14c-8.708 2.067-7.533 11.865-8.267 17.404-.727 5.532-2.142 10.224-11.309 21.029-9.167 10.79-6.404 20.499-4.307 27.949 0 0 3.15 7.845.895 10.041-2.022 1.953-3.23-1.55-4.402-1.582-1.078-.004-3.153 11.301 7.147 12.417 16.345 1.8 16.517-16.612 18.714-25.051 2.196-8.454 12.353-3.445 15.443-14.159 3.097-10.73.543-38.908.543-38.908z" fill="#FFCB48"/><path d="M215.216 128.223s1.929 14.699 3.07 16.114c1.15 1.43 4.414 2.862 5.132-1.1.717-3.977-3.92-16.08-3.92-16.08l-4.282 1.066z" fill="#FF97A6"/><path d="M216.65 137.683c1.936.821 5.058-1.175 5.099-4.088-.595-2.631-.379-1.101-1.103-3.251l-4.964 1.234c.302 2.103.52 3.664.968 6.105z" fill="#C95D77"/><path d="M223.267 128.911c1.169-2.223.519-11.408.519-11.408-1.941-6.464-16.175-4.029-18.384-2.632-2.43 1.548-2.536 4.995-2.669 7.545-.133 2.565.541 7.19 2.062 9.355 1.382 1.99 5.489 3.81 7.823 3.805 7.048.003 9.094-1.772 10.649-6.665z" fill="#FF97A6"/><path d="M206.49 114.398s5.084-1.91 7.255.674c2.171 2.584 3.976 14.541 13.886 13.081 9.911-1.444-8.051-19.103-8.051-19.103s-13.126-3.307-13.09 5.348z" fill="#FFCB48"/><path d="M251.925 148.772c4.553-5.089 5.821-12.516 4.862-19.222-.809-6.86-4.118-13.178-8.226-18.596-4.163-5.402-9.452-10.087-15.829-12.872-6.459-2.673-14.534-1.573-19.435 3.599l.704.035c-1.549-1.86-3.729-3.1-6.081-3.373-1.144-.112-2.336-.073-3.439.275-1.128.286-2.146.818-3.138 1.373 1.034-.486 2.079-.933 3.186-1.148 1.106-.255 2.247-.214 3.332-.038 2.184.375 4.121 1.773 5.419 3.432a.463.463 0 00.651.082l.037-.032.016-.016c4.697-4.604 12.304-5.285 18.185-2.809 5.99 2.676 11.029 7.324 15.158 12.453 4.077 5.218 7.242 11.259 8.343 17.797a29.35 29.35 0 01.093 9.908c-.55 3.277-1.717 6.524-3.838 9.152z" fill="#FFDA88"/></svg>