<svg width="91" height="59" fill="none" xmlns="http://www.w3.org/2000/svg"><g clip-path="url(#clip0)" fill="#FF5858"><path d="M90.951 40.803c-.227-5.147-1.133-10.853-2.493-16.224-1.36-5.146-3.06-9.958-5.101-13.65C75.423-2.833 66.809-.707 56.494 1.978c-3.287.783-6.8 1.678-10.427 2.014h-1.134c-3.627-.336-7.14-1.23-10.427-2.014C24.19-.595 15.577-2.833 7.643 11.041c-2.04 3.692-3.854 8.503-5.1 13.65C1.182 30.061.275 35.768.048 40.915c-.227 5.706.34 9.846 1.587 12.755 1.247 2.686 3.06 4.364 5.44 5.035 2.154.56 4.647.336 7.254-.783 4.42-1.79 9.521-5.594 14.508-10.182 3.514-3.356 10.088-5.035 16.662-5.035s13.148 1.679 16.662 5.035c4.987 4.588 10.087 8.392 14.508 10.182 2.607 1.007 5.1 1.343 7.254.783 2.267-.671 4.194-2.237 5.44-5.147 1.247-2.797 1.814-6.937 1.587-12.755zm-5.44 11.189c-.68 1.566-1.587 2.462-2.72 2.797-1.248.336-2.834.112-4.648-.56-3.967-1.566-8.614-5.034-13.148-9.286-4.307-4.252-11.9-6.378-19.495-6.378-7.594 0-15.188 2.126-19.609 6.154-4.647 4.252-9.294 7.832-13.147 9.287-1.814.671-3.4 1.007-4.648.56-1.133-.336-2.04-1.231-2.72-2.798-.907-2.126-1.36-5.594-1.133-10.741a76.257 76.257 0 012.38-15.44c1.247-4.812 2.833-9.287 4.76-12.644 6.234-11.077 13.488-9.287 22.103-7.049 3.513.895 7.14 1.79 11.107 2.126h1.7c4.08-.336 7.708-1.23 11.221-2.126 8.615-2.126 15.869-4.028 22.103 7.05 1.926 3.356 3.513 7.72 4.76 12.642 1.247 5.147 2.154 10.518 2.38 15.44.227 5.148-.226 8.616-1.246 10.966z"/><path d="M35.072 18.985c-1.133-1.007-2.493-1.79-4.08-1.902a6.33 6.33 0 00-1.814-3.916l-.113-.112c-1.247-1.23-2.834-1.902-4.647-1.902a6.736 6.736 0 00-4.647 1.902c-1.02 1.007-1.814 2.462-1.927 4.028-1.587.112-2.947.783-4.08 1.79l-.114.112c-1.247 1.231-1.927 2.797-1.927 4.588 0 1.79.794 3.468 1.927 4.587 1.134 1.119 2.494 1.79 4.194 1.902.113 1.566.793 3.021 1.927 4.028 1.246 1.23 2.833 1.902 4.647 1.902a6.736 6.736 0 004.647-1.902c1.02-1.119 1.813-2.462 1.927-4.028 1.587-.112 3.06-.783 4.08-1.902C36.32 26.93 37 25.363 37 23.573c0-1.79-.793-3.469-1.927-4.588zm-2.833 6.266c-.454.447-1.02.671-1.7.671h-1.587c-1.134 0-2.154.895-2.154 2.126v1.455c0 .671-.227 1.23-.68 1.678-.453.447-1.02.671-1.7.671-.68 0-1.247-.224-1.7-.671-.454-.448-.68-1.007-.68-1.678v-1.567a2.138 2.138 0 00-2.154-2.126h-1.587c-.68 0-1.247-.223-1.7-.671-.34-.336-.68-.895-.68-1.566 0-.672.227-1.231.68-1.679l.113-.112c.454-.335 1.02-.559 1.587-.559h1.587c1.133 0 2.154-.895 2.154-2.126v-1.566c0-.672.226-1.231.68-1.679.453-.447 1.02-.671 1.7-.671.68 0 1.247.224 1.7.671l.113.112c.34.448.567 1.007.567 1.567v1.566c0 1.119.907 2.126 2.154 2.126h1.586c.68 0 1.247.224 1.7.671.454.448.68 1.007.68 1.679 0 .67-.226 1.23-.68 1.678zm32.983-5.707c2.191 0 3.967-1.753 3.967-3.915 0-2.163-1.776-3.917-3.967-3.917-2.19 0-3.967 1.754-3.967 3.917 0 2.162 1.776 3.915 3.967 3.915zm0 15.889c2.191 0 3.967-1.754 3.967-3.916 0-2.163-1.776-3.916-3.967-3.916-2.19 0-3.967 1.753-3.967 3.916 0 2.162 1.776 3.916 3.967 3.916zm-8.048-7.944c2.191 0 3.967-1.754 3.967-3.916 0-2.163-1.776-3.916-3.967-3.916-2.19 0-3.967 1.753-3.967 3.916 0 2.162 1.776 3.916 3.967 3.916zm16.096 0c2.19 0 3.966-1.754 3.966-3.916 0-2.163-1.776-3.916-3.967-3.916-2.19 0-3.967 1.753-3.967 3.916 0 2.162 1.776 3.916 3.967 3.916z"/></g><defs><clipPath id="clip0"><path fill="#fff" d="M0 0h91v59H0z"/></clipPath></defs></svg>