<svg width="204" height="40" fill="none" xmlns="http://www.w3.org/2000/svg"><g clip-path="url(#clip0)"><path d="M67.58 27.996l-.013-.007.012-.032V11.62H51.185v16.395H67.58v-.019z" fill="#2E338B"/><path d="M27.987 28.014V11.62H11.591v16.368l.012.028h16.383l.001-.002z" fill="#00947E"/><path d="M39.58 23.185l11.592-11.592L39.58 0 27.987 11.592 39.58 23.185z" fill="#007AC1"/><path d="M55.985 39.607H79.17L67.573 28.015 55.985 39.608v-.001z" fill="#CF1E63"/><path d="M11.6 28.023l-.03.012L0 39.607h23.184L11.6 28.023z" fill="#F3981F"/><path d="M51.18 28.016h-6.79v6.79h6.79v-6.79z" fill="#2E338B"/><path d="M34.782 28.016H27.99v6.79h6.792v-6.79z" fill="#00947E"/><path d="M44.39 28.009l-4.802-4.8-4.8 4.801 4.803 4.8 4.8-4.801z" fill="#007AC1"/><path d="M46.376 39.607h9.604l-4.803-4.8-4.8 4.8z" fill="#CF1E63"/><path d="M23.19 39.607h9.603l-4.802-4.8-4.8 4.8h-.002z" fill="#F3981F"/><path d="M23.664 1.187L20.61 8.561l7.377 3.058 3.055-7.378-7.378-3.054z" fill="#2E338B"/><path d="M55.487 1.174l-7.374 3.055 3.052 7.378 7.38-3.056-3.058-7.377z" fill="#00947E"/><path d="M74.945 31.043l3.052-7.375-7.373-3.055-3.045 7.344v.039l7.366 3.047z" fill="#F3981F"/><path d="M67.58 27.997v-.04l-.013.033.013.007z" fill="#F3981F"/><path d="M11.591 27.988L8.547 20.64 1.171 23.7l3.057 7.372 7.344-3.036.02-.02v-.028z" fill="#CF1E63"/><path d="M11.603 28.014h-.012l.009.009.005-.003-.002-.006z" fill="#CF1E63"/><path d="M11.604 28.017l-.013-.03v.03h.013z" fill="#CF1E63"/><path d="M11.57 28.037l.033-.013-.01-.01-.023.023z" fill="#CF1E63"/><path d="M197.913 6.847c1.678 0 3.164-.964 3.164-2.663v-.25h-1.851v.231c0 .85-.678 1.237-1.313 1.237-.636 0-1.293-.387-1.293-1.217v-.25h-1.868v.25c0 1.698 1.483 2.662 3.161 2.662zm-96.169.617h-2.488v11.553h-5.92V7.464h-2.49v13.694h10.299v2.7h2.218v-4.841h-1.619V7.464zm15.153 0h-2.469l-5.169 7.887c-.502.812-1.158 2.142-1.158 2.142h-.039s.136-1.31.136-2.122V7.464h-2.49v13.694h2.469l5.209-7.888c.501-.81 1.137-2.122 1.137-2.122h.038s-.134 1.31-.134 2.122v7.888h2.469V7.464h.001zm8.573-.77v1.503c-3.722 0-6.268 2.333-6.268 5.67 0 3.394 2.546 5.785 6.268 5.785v1.738h2.489v-1.738c3.741 0 6.267-2.391 6.267-5.786 0-3.335-2.546-5.669-6.267-5.669V6.693h-2.489zm0 10.875c-2.199 0-3.722-1.503-3.722-3.702 0-2.14 1.523-3.586 3.722-3.586v7.288zm2.489 0v-7.288c2.218 0 3.741 1.446 3.741 3.586-.001 2.2-1.523 3.702-3.741 3.702zm13.839-10.105h-5.286v13.694h2.489v-4.726h2.796c2.565 0 4.358-1.85 4.358-4.513 0-2.662-1.792-4.454-4.357-4.454zm-.464 6.808h-2.333V9.607h2.373c1.406 0 2.254.905 2.254 2.313.001 1.428-.848 2.353-2.294 2.353zm13.246 7.118c4.029 0 7.078-3.145 7.078-7.174 0-3.916-3.049-6.983-7.078-6.983-4.032 0-7.079 3.067-7.079 6.983 0 4.03 3.047 7.174 7.079 7.174zm0-2.276c-2.508 0-4.514-2.122-4.514-4.898 0-2.663 2.006-4.707 4.514-4.707 2.508 0 4.514 2.044 4.514 4.707 0 2.776-2.007 4.897-4.514 4.897zm9.576 2.044h4.958c2.526 0 4.725-1.235 4.725-3.973 0-1.388-.714-2.777-2.219-3.22v-.041c1.043-.558 1.659-1.658 1.659-2.93 0-2.257-1.754-3.53-4.244-3.53h-4.879v13.694zm6.595-9.856c0 .983-.615 1.755-1.695 1.755h-2.412V9.605h2.372c1.139 0 1.735.714 1.735 1.697zm-1.445 7.715h-2.661v-3.953h2.661c1.254 0 1.987.829 1.987 1.966 0 1.157-.714 1.987-1.987 1.987zm13.32-11.783c-4.031 0-7.077 3.066-7.077 6.982 0 4.029 3.046 7.174 7.077 7.174 4.03 0 7.078-3.145 7.078-7.174 0-3.916-3.048-6.983-7.078-6.983zm0 11.88c-2.508 0-4.513-2.122-4.513-4.898 0-2.663 2.006-4.707 4.513-4.707 2.508 0 4.514 2.044 4.514 4.707 0 2.776-2.006 4.898-4.514 4.898zm18.297-11.65l-5.17 7.887c-.501.812-1.158 2.142-1.158 2.142h-.04s.137-1.31.137-2.122V7.464h-2.488v13.694h2.468l5.207-7.888c.501-.81 1.138-2.122 1.138-2.122h.039s-.134 1.31-.134 2.122v7.888h2.468V7.464h-2.467zM94.306 33.581h-2.35V30.4h4.716v-1.006h-5.826v10.2h3.545c1.74 0 2.955-1.229 2.955-2.986 0-1.868-1.165-3.027-3.04-3.027zm-.058 5.005h-2.293v-3.998h2.28c1.2 0 1.977.793 1.977 2.02 0 1.24-.734 1.978-1.965 1.978zm13.315-9.156l-.014-.038h-1.145l-3.744 10.2h1.173l1.147-3.212h3.978l1.147 3.174.015.038h1.172l-3.729-10.162zm-2.239 5.971l1.305-3.577c.126-.347.275-.893.347-1.164.073.27.222.817.347 1.164l1.292 3.577h-3.291zm15.97-1.2c.579-.298 1.44-.962 1.44-2.285 0-1.639-1.177-2.698-2.999-2.698-1.145 0-2.1.329-2.919 1.004l-.04.03.519.878.053-.044c.677-.561 1.447-.848 2.287-.848 1.229 0 1.964.665 1.964 1.779 0 1.029-.863 1.805-2.008 1.805h-1.076v.979h1.334c1.244 0 2.079.752 2.079 1.877 0 1.227-.939 2.05-2.337 2.05a3.35 3.35 0 01-2.409-1.085l-.045-.05-.633.77-.031.039.031.036c.696.806 1.924 1.325 3.129 1.325 2.027 0 3.443-1.255 3.443-3.054.001-1.222-.663-2.153-1.782-2.508zm12.086-4.771l-.015-.038h-1.144l-3.743 10.2h1.171l1.148-3.212h3.977l1.149 3.174.013.038h1.172l-3.728-10.163zm-.933 2.395c.125-.347.274-.893.347-1.164.072.271.221.817.347 1.164l1.292 3.577h-3.291l1.305-3.577zm14.395-2.432h-3.544v10.2h1.108v-3.96h2.435c1.868 0 3.173-1.29 3.173-3.14 0-1.857-1.275-3.1-3.172-3.1zm-.129 5.234h-2.307V30.4h2.32c1.328 0 2.152.801 2.152 2.093 0 1.317-.829 2.135-2.165 2.135v-.001z" fill="#fff"/></g><defs><clipPath id="clip0"><path fill="#fff" d="M0 0h203.39v40H0z"/></clipPath></defs></svg>