<svg width="74" height="21" fill="none" xmlns="http://www.w3.org/2000/svg"><path d="M21.01 12.444c.778 0 2.333-.388 2.333 2.334s-1.555 2.333-2.333 2.333h-.778v-4.667h.778zm0-8.555c1.556 0 1.944.778 1.944 2.333 0 1.556-.388 2.334-1.944 2.334h-.778V3.889h.778zM15.566 0v21h7c4.666 0 5.444-3.111 5.444-5.444 0-2.21-.607-4.667-3.111-5.445a4.97 4.97 0 003.111-4.667C28.01.778 24.121 0 21.788 0h-6.222zM35.01 12.444c.778 0 2.333-.388 2.333 2.334s-1.555 2.333-2.333 2.333h-.778v-4.667h.778zm0-8.555c1.556 0 1.945.778 1.945 2.333 0 1.556-.39 2.334-1.945 2.334h-.778V3.889h.778zM29.566 0v21h7c4.666 0 5.444-3.111 5.444-5.444 0-2.21-.607-4.667-3.111-5.445a4.97 4.97 0 003.111-4.667C42.01.778 38.121 0 35.788 0h-6.222zm21.777 0s-1.687 7.124-2.115 8.416C48.823 7.116 47.455 0 47.455 0h-4.667s3.889 13.152 3.889 13.222V21h4.666v-7.778L56.01 0h-4.667zm14 0s-1.687 7.124-2.115 8.416C62.823 7.116 61.454 0 61.454 0h-4.666s3.889 13.152 3.889 13.222V21h4.666v-7.778L70.01 0h-4.667zM6.233 13.222l1.166-7 1.167 7H6.232zM10.51 21h4.278L10.12 0H4.677L.01 21h4.278l1.166-4.278h3.89L10.51 21zM72.343 0a1.556 1.556 0 110 3.111 1.556 1.556 0 010-3.111zm0 2.878a1.291 1.291 0 001.26-1.322 1.26 1.26 0 00-2.52 0 1.285 1.285 0 001.26 1.322zm-.567-2.1h.684a.443.443 0 01.513.45.358.358 0 01-.264.359c.202.039.21.217.225.373.016.156 0 .288.063.366h-.304c-.054-.063-.046-.102-.054-.358 0-.14 0-.288-.342-.288h-.234v.653h-.287V.778zm.287.7h.335c.24 0 .288-.14.288-.25 0-.108-.133-.232-.312-.232h-.303l-.008.482z" fill="#2E338B"/></svg>