<svg width="146" height="35" fill="none" xmlns="http://www.w3.org/2000/svg"><path d="M66.64 7.859l-5.225 18.498h-2.54L55.067 12.84a8.455 8.455 0 01-.296-1.884h-.052a9.57 9.57 0 01-.335 1.858l-3.83 13.544h-2.516L42.62 7.86h2.386l3.934 14.19c.163.593.267 1.212.31 1.857h.065c.043-.455.175-1.074.4-1.857l4.089-14.19h2.076l3.922 14.293c.137.49.24 1.067.31 1.729h.05c.034-.447.15-1.04.35-1.78L64.291 7.86h2.348v-.001zm2.913 1.935a1.34 1.34 0 01-.967-.388 1.306 1.306 0 01-.4-.98c0-.395.134-.725.4-.987a1.33 1.33 0 01.967-.394c.388 0 .716.132.988.394.27.262.406.591.406.987 0 .379-.136.701-.406.968-.272.267-.6.4-.988.4zm1.032 16.563H68.47V13.148h2.115v13.21zm14.218 0h-2.116v-7.533c0-2.803-1.023-4.205-3.07-4.205-1.057 0-1.933.398-2.625 1.194-.693.795-1.038 1.799-1.038 3.011v7.533h-2.116V13.148h2.116v2.193h.05c.998-1.668 2.443-2.502 4.335-2.502 1.445 0 2.55.466 3.315 1.399.766.933 1.148 2.281 1.148 4.044v8.075h.001zm15.05 0h-2.116v-2.244h-.051c-.981 1.702-2.495 2.554-4.541 2.554-1.66 0-2.986-.591-3.98-1.774-.992-1.182-1.49-2.793-1.49-4.83 0-2.185.55-3.936 1.652-5.25 1.1-1.317 2.566-1.975 4.399-1.975 1.814 0 3.134.715 3.96 2.142h.05V6.802h2.117v19.555zm-2.115-5.972v-1.948c0-1.066-.354-1.969-1.058-2.709-.706-.739-1.6-1.11-2.683-1.11-1.29 0-2.305.474-3.044 1.42-.74.946-1.11 2.253-1.11 3.92 0 1.523.355 2.725 1.064 3.606.71.881 1.662 1.322 2.857 1.322 1.178 0 2.135-.425 2.87-1.277.735-.85 1.104-1.926 1.104-3.224zm11.363 6.282c-1.953 0-3.511-.617-4.676-1.851-1.166-1.234-1.748-2.87-1.748-4.909 0-2.218.606-3.951 1.819-5.198 1.212-1.247 2.85-1.871 4.915-1.871 1.968 0 3.507.606 4.611 1.819 1.105 1.211 1.658 2.894 1.658 5.044 0 2.107-.596 3.794-1.787 5.063-1.191 1.269-2.788 1.903-4.792 1.903zm.154-12.049c-1.359 0-2.434.462-3.224 1.387-.792.925-1.187 2.2-1.187 3.825 0 1.565.4 2.799 1.2 3.702.8.902 1.871 1.354 3.212 1.354 1.368 0 2.419-.443 3.155-1.33.735-.884 1.102-2.144 1.102-3.778 0-1.652-.367-2.924-1.102-3.82-.736-.892-1.788-1.34-3.156-1.34zm25.489-1.47l-3.96 13.21h-2.193l-2.721-9.456a6.008 6.008 0 01-.206-1.225h-.052c-.025.31-.116.708-.271 1.2l-2.953 9.481h-2.116l-3.999-13.21h2.218l2.734 9.933c.085.3.146.696.181 1.186h.103c.026-.378.103-.782.232-1.212l3.045-9.907h1.934l2.735 9.958c.085.319.15.714.194 1.187h.103c.017-.335.09-.73.219-1.187l2.684-9.958h2.089zm.981 12.732v-2.271c1.151.852 2.42 1.277 3.805 1.277 1.857 0 2.786-.619 2.786-1.857 0-.353-.08-.652-.238-.897a2.376 2.376 0 00-.645-.652 4.993 4.993 0 00-.954-.51 73.13 73.13 0 00-1.18-.47 15.134 15.134 0 01-1.542-.704 4.634 4.634 0 01-1.109-.8 2.975 2.975 0 01-.671-1.013c-.15-.378-.226-.82-.226-1.328 0-.62.142-1.168.425-1.645a3.801 3.801 0 011.135-1.2 5.318 5.318 0 011.62-.73 7.189 7.189 0 011.876-.244c1.143 0 2.167.199 3.07.594v2.14c-.973-.635-2.09-.954-3.354-.954a3.9 3.9 0 00-1.07.136 2.61 2.61 0 00-.819.38 1.77 1.77 0 00-.529.587c-.125.229-.187.48-.187.755 0 .344.062.631.187.865.125.231.308.438.548.619.242.18.534.343.877.489.345.146.736.305 1.176.477.583.225 1.108.455 1.573.69.464.237.859.504 1.186.8.327.298.578.64.755 1.026.176.388.264.847.264 1.38 0 .654-.142 1.221-.431 1.703a3.698 3.698 0 01-1.155 1.2 5.28 5.28 0 01-1.664.709 8.205 8.205 0 01-1.973.232c-1.361.003-2.539-.26-3.536-.785zM15.832 16.453h17.53V1.19l-17.53 2.558v12.704zm-1.236 0V3.929L1.866 5.785v10.668h12.73zm0 1.235H1.866V28.49l12.73 1.878v-12.68zm1.236 0V30.55l17.53 2.586v-15.45h-17.53z" fill="#2E338B"/></svg>