<svg width="146" height="30" fill="none" xmlns="http://www.w3.org/2000/svg"><g clip-path="url(#clip0)"><path d="M66.033 14.97c0 5.475-3.34 8.063-7.521 8.063h-2.555v-3.285h2.356c2.522 0 4.203-1.36 4.203-4.778 0-3.385-1.59-5.077-4.278-5.077-2.588 0-4.438 1.593-4.438 5.01v13.738h-3.484V7.039H53.8v1.859h.498c1.161-1.56 2.878-2.257 4.67-2.257 3.85 0 7.065 2.787 7.065 8.329zm-22.898-1.427l-2.323-.232c-1.825-.166-2.787-.664-2.787-1.726 0-1.26 1.228-1.99 2.986-1.99 1.825 0 2.987.862 3.086 2.09h3.352c-.133-3.12-2.555-5.044-6.404-5.044-3.883 0-6.504 2.057-6.504 5.077 0 2.522 1.593 4.148 5.21 4.513l2.355.232c1.427.133 2.39.431 2.39 1.792 0 1.228-.897 2.123-3.252 2.123-2.17 0-3.239-.984-3.614-2.304h-3.626c.362 3.017 2.896 5.357 7.24 5.357 4.081 0 6.736-2.157 6.736-5.342 0-2.82-1.859-4.247-4.845-4.546zm36.392 4.531c-.547 1.256-1.853 2.205-3.706 2.205-2.555 0-4.446-1.66-4.446-5.243 0-3.418 1.758-5.309 4.48-5.309 2.422 0 3.815 1.46 3.948 3.65h-6.272v2.522h9.69v-1.66c0-4.612-3.053-7.598-7.4-7.598-4.048 0-7.93 2.754-7.93 8.395 0 5.64 3.882 8.395 7.93 8.395 3.703 0 6.343-2.28 7.163-5.357h-3.457zM24.603 6.641c-3.816 0-6.67 1.991-7.001 5.044h3.749c.266-1.128 1.294-1.958 3.252-1.958 2.522 0 3.351 1.328 3.351 2.953v5.475c-1.426 1.626-3.086 2.39-4.745 2.39-1.725 0-2.92-.83-2.92-2.323 0-1.427.93-2.323 2.721-2.323h2.787v-2.522h-2.886c-3.982 0-6.205 1.991-6.205 5.044 0 2.853 2.156 5.01 5.707 5.01 1.99 0 3.75-.796 5.044-1.759h.497v1.36h3.485V12.349c0-3.948-2.688-5.707-6.836-5.707zM.963 23.033h3.484v-21.9H.963v21.9zM15.597 7.039h-4.248l-5.077 6.67v2.09l5.21 7.234h4.314L9.69 14.737l5.907-7.698zm125.951 0l-2.854 6.338c-.697 1.527-1.36 3.02-1.559 4.015h-.498c-.2-.995-.896-2.455-1.593-3.982l-2.854-6.37h-3.849l6.703 14.367-3.318 7.234h3.716l9.955-21.602h-3.849zm-13.977 0h-4.248l-5.077 6.67v2.09l5.21 7.234h4.314l-6.106-8.296 5.907-7.698zm-21.815 6.504l-2.322-.232c-1.825-.166-2.788-.664-2.788-1.726 0-1.26 1.228-1.99 2.987-1.99 1.825 0 2.986.862 3.086 2.09h3.351c-.133-3.12-2.555-5.044-6.404-5.044-3.882 0-6.504 2.057-6.504 5.077 0 2.522 1.593 4.148 5.21 4.513l2.356.232c1.427.133 2.389.431 2.389 1.792 0 1.228-.896 2.123-3.252 2.123-2.17 0-3.238-.984-3.614-2.304h-3.625c.361 3.017 2.895 5.357 7.239 5.357 4.081 0 6.736-2.157 6.736-5.342 0-2.82-1.858-4.247-4.845-4.546zm7.181 9.49h3.484v-21.9h-3.484v21.9zM89.962 8.898h-.498V7.039H85.98v15.994h3.484V14.67c0-2.854 1.319-4.513 3.916-4.513h2.206V6.641h-1.277c-2.41 0-3.434.909-4.347 2.257z" fill="#2E338B"/></g><defs><clipPath id="clip0"><path fill="#fff" d="M.68 0h145v29.736H.68z"/></clipPath></defs></svg>