<svg width="146" height="31" fill="none" xmlns="http://www.w3.org/2000/svg"><g clip-path="url(#clip0)" fill="#2E338B"><path d="M59.068 7.285a6.154 6.154 0 013.694 3.538c.365.902.538 1.89.52 2.862v9.643h-4.266v-8.88c0-1.197-.295-2.116-.867-2.758-.573-.641-1.457-.971-2.654-.971a3.451 3.451 0 00-2.706 1.214c-.728.815-1.075 1.89-1.075 3.244v8.134H47.43v-8.863c0-1.197-.295-2.116-.867-2.758-.573-.641-1.457-.971-2.654-.971a3.451 3.451 0 00-2.706 1.214c-.728.815-1.075 1.89-1.075 3.244v8.134H35.86V7.25h4.267v1.214a5.632 5.632 0 011.89-1.162 7.25 7.25 0 012.706-.486 9.31 9.31 0 013.382.573 5.336 5.336 0 012.376 1.856 6.363 6.363 0 012.273-1.735c.97-.468 2.133-.71 3.486-.71a8.73 8.73 0 012.827.485zm18.455.173a8.33 8.33 0 012.775 1.77 8.111 8.111 0 011.82 2.688 8.387 8.387 0 01.66 3.382 8.263 8.263 0 01-.66 3.365 8.308 8.308 0 01-1.82 2.67 8.33 8.33 0 01-2.775 1.77c-2.238.85-4.7.85-6.938 0a8.33 8.33 0 01-2.775-1.77 8.042 8.042 0 01-1.822-2.67 8.32 8.32 0 01-.659-3.365 8.402 8.402 0 01.66-3.382 8.111 8.111 0 011.82-2.689 8.33 8.33 0 012.776-1.769c2.22-.85 4.7-.85 6.938 0zm-5.238 3.625a4.822 4.822 0 00-1.423.937 4.437 4.437 0 00-.954 1.44 5.253 5.253 0 00-.347 1.855c0 .625.104 1.249.347 1.839.209.537.538 1.023.954 1.422a4.577 4.577 0 006.366 0c.416-.399.728-.885.954-1.422a5.16 5.16 0 00.347-1.839 4.85 4.85 0 00-.347-1.856 4.177 4.177 0 00-.954-1.44c-1.318-1.265-3.261-1.612-4.943-.936zm17.552 12.263L82.414 7.267h4.7l4.804 10.355L96.723 7.25h4.544l-7.423 16.078-4.007.018zm11.794-11.205a8.45 8.45 0 011.613-2.706 7.908 7.908 0 012.585-1.89 8.234 8.234 0 013.469-.711c.884 0 1.786.139 2.619.433a5.44 5.44 0 012.081 1.25v-1.25h4.267v16.079h-4.267v-1.214a5.196 5.196 0 01-2.081 1.231 8.48 8.48 0 01-6.088-.295 7.728 7.728 0 01-2.585-1.873 8.19 8.19 0 01-1.613-2.688 9.344 9.344 0 010-6.366zm4.024 4.909c.208.537.503 1.023.885 1.457.382.416.832.763 1.353.988a4.322 4.322 0 001.734.364c.573 0 1.128-.104 1.665-.294a4.397 4.397 0 001.457-.85 3.967 3.967 0 001.041-1.405 4.661 4.661 0 00.382-1.995 4.875 4.875 0 00-.382-1.994 4.431 4.431 0 00-1.041-1.423 4.278 4.278 0 00-1.457-.867 4.922 4.922 0 00-1.647-.295c-.607 0-1.197.122-1.735.382-.52.243-.988.59-1.37 1.006a4.868 4.868 0 00-.885 4.926zm21.577 6.296l-7.424-16.079h4.701l4.804 10.355 4.805-10.372h4.544l-7.424 16.078-4.006.018zM144.819 0v4.648h-4.665V0h4.665zm-.208 23.346h-4.267V7.25h4.267v16.096zM13.816 11.95a5.065 5.065 0 100-10.129 5.065 5.065 0 000 10.13zm0 17.484a5.065 5.065 0 100-10.13 5.065 5.065 0 000 10.13zm8.742-8.742a5.065 5.065 0 100-10.13 5.065 5.065 0 000 10.13zm-17.483 0a5.065 5.065 0 100-10.13 5.065 5.065 0 000 10.13z"/></g><defs><clipPath id="clip0"><path fill="#fff" d="M.01 0h145v30.526H.01z"/></clipPath></defs></svg>