<svg width="146" height="31" fill="none" xmlns="http://www.w3.org/2000/svg"><g clip-path="url(#clip0)" fill="#2E338B"><path d="M51.517 17.837l-.864 2.449h-.072a17.401 17.401 0 00-.84-2.401L45.107 6.242H40.57v18.557h3V13.348c0-.72 0-1.537-.023-2.545-.024-.504-.072-.888-.096-1.176h.072c.144.72.312 1.248.432 1.584l5.57 13.54h2.112l5.522-13.66c.12-.312.24-.936.36-1.464h.072c-.072 1.368-.12 2.592-.144 3.337v11.763h3.193V6.194h-4.37l-4.753 11.643zm12.147-6.41h3.121v13.3h-3.12v-13.3zM65.25 5.81c-.528 0-.96.192-1.32.528-.36.336-.553.768-.553 1.296 0 .504.192.936.553 1.273.36.336.792.504 1.32.504s.984-.192 1.32-.504c.36-.337.552-.769.552-1.273 0-.504-.192-.936-.552-1.296-.312-.336-.768-.528-1.32-.528zm12.603 5.497a8.707 8.707 0 00-1.752-.192c-1.416 0-2.713.312-3.793.936-1.08.625-1.945 1.489-2.497 2.57-.576 1.103-.864 2.376-.864 3.84 0 1.273.288 2.4.84 3.433.552 1.008 1.32 1.825 2.353 2.377.984.552 2.136.84 3.433.84 1.488 0 2.76-.312 3.769-.888l.024-.024v-2.881l-.12.096a5.364 5.364 0 01-1.513.792c-.552.192-1.056.288-1.488.288-1.248 0-2.233-.36-2.929-1.152-.72-.768-1.08-1.825-1.08-3.145 0-1.368.36-2.448 1.104-3.24.744-.793 1.729-1.201 2.929-1.201 1.008 0 2.04.336 2.977 1.008l.12.096v-3.049l-.024-.024c-.408-.168-.864-.36-1.489-.48zm10.3-.096c-.769 0-1.49.24-2.113.744-.529.432-.889 1.057-1.2 1.8h-.025v-2.328h-3.12v13.3h3.12v-6.794c0-1.152.24-2.113.769-2.809.528-.72 1.2-1.08 2.016-1.08.288 0 .576.072.936.12.336.096.577.192.745.312l.12.096v-3.12l-.073-.025c-.215-.144-.648-.216-1.176-.216zm8.498-.072c-2.185 0-3.938.648-5.162 1.92-1.248 1.273-1.848 3.025-1.848 5.234 0 2.065.624 3.745 1.824 4.97 1.2 1.2 2.833 1.824 4.874 1.824 2.136 0 3.841-.648 5.065-1.945 1.248-1.296 1.848-3.024 1.848-5.16 0-2.114-.576-3.794-1.752-5.018-1.128-1.225-2.785-1.825-4.85-1.825zm2.496 10.227c-.576.744-1.488 1.104-2.617 1.104-1.128 0-2.04-.36-2.688-1.152-.648-.744-.96-1.825-.96-3.193 0-1.416.336-2.497.96-3.265.648-.768 1.536-1.152 2.665-1.152 1.104 0 1.968.36 2.592 1.104.624.744.96 1.825.96 3.241-.048 1.44-.312 2.569-.912 3.313zm11.067-4.417c-.984-.408-1.608-.72-1.896-.985-.24-.24-.36-.576-.36-1.008 0-.36.144-.72.504-.96s.768-.36 1.368-.36c.528 0 1.08.096 1.609.24.528.144 1.008.36 1.392.648l.12.096v-2.929l-.072-.024a8.659 8.659 0 00-1.416-.408 9.643 9.643 0 00-1.537-.144c-1.488 0-2.713.36-3.673 1.152-.96.745-1.416 1.753-1.416 2.93 0 .623.096 1.176.312 1.632.216.456.528.888.96 1.248.432.336 1.056.72 1.921 1.08.72.313 1.272.552 1.608.745.336.192.552.408.72.576.12.192.192.432.192.744 0 .888-.672 1.32-2.04 1.32-.528 0-1.08-.096-1.729-.312a6.674 6.674 0 01-1.752-.888l-.12-.096v3.049l.072.024c.456.216 1.008.36 1.68.528.672.12 1.273.216 1.801.216 1.608 0 2.929-.36 3.865-1.152.96-.769 1.464-1.753 1.464-3.025 0-.888-.24-1.68-.768-2.28a9.725 9.725 0 00-2.809-1.657zm11.812-5.81c-2.185 0-3.938.648-5.162 1.92-1.224 1.273-1.848 3.025-1.848 5.234 0 2.065.624 3.745 1.824 4.97 1.2 1.2 2.833 1.824 4.873 1.824 2.137 0 3.842-.648 5.066-1.945 1.248-1.296 1.848-3.024 1.848-5.16 0-2.114-.576-3.794-1.752-5.018-1.128-1.225-2.785-1.825-4.849-1.825zm2.472 10.227c-.576.744-1.488 1.104-2.616 1.104-1.153 0-2.041-.36-2.689-1.152-.648-.744-.96-1.825-.96-3.193 0-1.416.336-2.497.96-3.265.648-.768 1.536-1.152 2.665-1.152 1.08 0 1.968.36 2.592 1.104.624.744.96 1.825.96 3.241 0 1.44-.312 2.569-.912 3.313zm20.814-7.37v-2.569h-3.145V7.49l-.096.024-2.977.888-.072.024v3.001h-4.705v-1.68c0-.768.192-1.369.528-1.753.336-.384.84-.576 1.464-.576.433 0 .889.096 1.393.312l.12.072V5.09l-.072-.024c-.432-.145-1.008-.24-1.753-.24a5.62 5.62 0 00-2.496.576 4.166 4.166 0 00-1.705 1.704c-.408.72-.624 1.536-.624 2.473v1.848h-2.185v2.545h2.185v10.755h3.145V13.996h4.705v6.842c0 2.809 1.321 4.225 3.961 4.225.432 0 .889-.072 1.321-.144.456-.096.792-.216.984-.312l.024-.024v-2.569l-.12.096c-.192.12-.36.216-.648.288-.24.072-.456.096-.624.096-.625 0-1.057-.144-1.369-.504-.288-.336-.432-.888-.432-1.704v-6.29h3.193zM.335 0h14.716v14.716H.335V0zm16.252 0h14.716v14.716H16.587V0zM.335 16.252h14.716v14.716H.335V16.252zm16.252 0h14.716v14.716H16.587V16.252z"/></g><defs><clipPath id="clip0"><path fill="#fff" d="M.335 0h145v30.968h-145z"/></clipPath></defs></svg>