<svg width="77" height="31" fill="none" xmlns="http://www.w3.org/2000/svg"><g clip-path="url(#clip0)"><path fill-rule="evenodd" clip-rule="evenodd" d="M30.99 17.762c-5.557 0-6.474-1.294-6.474-4.052 0-4.391 2.724-4.463 6.482-4.463 2.502 0 5.841.045 5.841 3.356v.554h-3.971c-.187-1.09-1.042-1.17-1.879-1.17-2.306 0-2.413.304-2.413 1.232 0 .786.142 1.277 2.413 1.33 4.568.107 6.473.375 6.473 4.178 0 3.998-2.938 4.614-6.473 4.614-.89 0-1.71 0-2.493-.062-2.564-.214-3.954-1.214-3.98-4.258h4.194c.053 1.553 1.166 1.58 2.27 1.58 1.977 0 2.404-.134 2.404-1.33 0-.714-.205-1.116-.64-1.312a5.099 5.099 0 00-1.782-.179l.027-.018zm-13.464-3.124v-.098c0-2.16-.82-2.32-2.324-2.32-1.781 0-2.155.57-2.2 2.418h4.524zM8.8 16.298c0-5.355 1.14-7.06 6.473-7.06 4.986 0 6.456 1.41 6.456 7.06v.661h-8.736v.107c0 2.464.374 3.276 2.28 3.276 1.318 0 2.28-.152 2.324-1.624h4.132c0 2.017-.677 3.142-1.781 3.802-1.47.654-3.08.93-4.684.803-5.236 0-6.473-1.856-6.473-7.024H8.8zm41.075-4.23c1.523 0 2.369.16 2.369 2.356v.152h-4.63c.062-1.875.409-2.508 2.261-2.508zm19.447-2.839H58.984v3.142h3.072v10.8h4.203v-10.79h3.063V9.228zm-12.965 7.587v-.624c0-5.624-1.451-7.016-6.41-7.016-5.343 0-6.439 1.705-6.439 7.016 0 5.159 1.23 6.989 6.438 6.989a9.703 9.703 0 004.666-.804c1.069-.651 1.71-1.74 1.781-3.722h-4.078c-.063 1.482-1.06 1.634-2.369 1.634-1.94 0-2.324-.848-2.324-3.32v-.153h8.735zM40.08 4.034H11.81A8.894 8.894 0 005.718 6.65c-2.145 2.356-2.564 6.05-2.564 9.56 0 3.507.419 7.194 2.565 9.55a8.894 8.894 0 006.09 2.607H40.08V4.034zM76.42 16.21c0 2.875-.32 7.213-1.781 9.873a10.01 10.01 0 01-3.676 3.592 9.98 9.98 0 01-4.97 1.29H11.106a10.007 10.007 0 01-4.973-1.291 10.037 10.037 0 01-3.682-3.591C.98 23.404.67 19.075.67 16.209c0-2.865.33-7.22 1.78-9.88A9.993 9.993 0 016.13 2.73a9.963 9.963 0 014.976-1.285h54.868a9.963 9.963 0 014.971 1.288 9.993 9.993 0 013.675 3.594c1.478 2.678 1.78 6.998 1.78 9.881h.019zM74.15 1.117a.143.143 0 00-.063-.08h-.356v.446h.374a.313.313 0 00.053-.125.216.216 0 000-.117.134.134 0 000-.08l-.009-.044zm-.268.615h-.151v.58h-.374V.724h.818a.507.507 0 01.196.062.374.374 0 01.151.16.465.465 0 01.054.206.474.474 0 01-.098.286.685.685 0 01-.25.17l.58.687h-.49l-.401-.563h-.036zm.89-1.053a1.05 1.05 0 00-.89-.366 1.084 1.084 0 00-.837.366 1.25 1.25 0 00-.356.893c-.003.333.125.653.356.892a1.14 1.14 0 001.683 0c.229-.24.353-.56.347-.892a1.26 1.26 0 00-.347-.893h.044zm-.81 2.464a1.422 1.422 0 01-1.077-.464 1.483 1.483 0 01-.445-1.125 1.564 1.564 0 01.436-1.09 1.496 1.496 0 012.164 0 1.57 1.57 0 01.445 1.126 1.556 1.556 0 01-.454 1.124 1.37 1.37 0 01-1.113.429h.044z" fill="#2E338B"/></g><defs><clipPath id="clip0"><path fill="#fff" d="M.67 0h75.766v31H.67z"/></clipPath></defs></svg>