<svg width="85" height="16" fill="none" xmlns="http://www.w3.org/2000/svg"><path d="M37.848 8.048c0 3.185-1.943 4.69-4.375 4.69h-1.486v-1.91h1.37c1.467 0 2.445-.792 2.445-2.78 0-1.968-.925-2.953-2.488-2.953-1.506 0-2.582.927-2.582 2.915V16h-2.026V3.435h2.026v1.081h.29c.675-.907 1.674-1.312 2.716-1.312 2.24 0 4.11 1.621 4.11 4.844zm-13.319-.83l-1.351-.135c-1.062-.096-1.621-.386-1.621-1.003 0-.734.714-1.158 1.737-1.158 1.061 0 1.737.501 1.795 1.215h1.95c-.078-1.814-1.487-2.933-3.726-2.933-2.258 0-3.783 1.196-3.783 2.953 0 1.467.927 2.412 3.03 2.625l1.37.135c.83.077 1.39.25 1.39 1.042 0 .714-.52 1.235-1.891 1.235-1.262 0-1.884-.573-2.102-1.34h-2.109c.21 1.754 1.684 3.116 4.211 3.116 2.374 0 3.918-1.255 3.918-3.108 0-1.64-1.08-2.47-2.818-2.644zm21.167 2.636c-.318.73-1.077 1.282-2.155 1.282-1.486 0-2.586-.965-2.586-3.05C40.955 6.1 41.978 5 43.56 5c1.41 0 2.22.849 2.297 2.123h-3.648V8.59h5.636v-.965c0-2.683-1.776-4.42-4.304-4.42-2.355 0-4.613 1.602-4.613 4.883 0 3.28 2.258 4.883 4.613 4.883 2.154 0 3.69-1.327 4.166-3.116h-2.01zM13.75 3.204c-2.22 0-3.88 1.158-4.072 2.933h2.18C12.013 5.481 12.611 5 13.75 5c1.467 0 1.95.772 1.95 1.718V9.9c-.83.946-1.796 1.39-2.76 1.39-1.004 0-1.7-.483-1.7-1.351 0-.83.541-1.351 1.583-1.351h1.622V7.122h-1.68c-2.315 0-3.608 1.158-3.608 2.933 0 1.66 1.254 2.915 3.32 2.915 1.157 0 2.18-.463 2.933-1.023h.29v.791h2.026V6.523c0-2.296-1.563-3.32-3.976-3.32zM0 12.738h2.027V0H0v12.738zm8.511-9.303h-2.47l-2.953 3.88V8.53l3.03 4.207h2.51L5.075 7.913 8.51 3.435zm73.26 0l-1.66 3.687c-.406.888-.791 1.756-.907 2.335h-.29c-.116-.579-.521-1.428-.926-2.316l-1.66-3.706h-2.239l3.899 8.357L76.058 16h2.161l5.79-12.565H81.77zm-8.13 0h-2.47l-2.954 3.88V8.53l3.03 4.207h2.51l-3.552-4.825 3.436-4.478zM60.953 7.218l-1.351-.135c-1.062-.096-1.622-.386-1.622-1.003 0-.734.715-1.158 1.737-1.158 1.062 0 1.737.501 1.795 1.215h1.95c-.078-1.814-1.487-2.933-3.725-2.933-2.258 0-3.783 1.196-3.783 2.953 0 1.467.926 2.412 3.03 2.625l1.37.135c.83.077 1.39.25 1.39 1.042 0 .714-.521 1.235-1.892 1.235-1.261 0-1.883-.573-2.101-1.34h-2.11c.21 1.754 1.685 3.116 4.212 3.116 2.373 0 3.917-1.255 3.917-3.108 0-1.64-1.08-2.47-2.817-2.644zm4.176 5.52h2.027V0h-2.027v12.738zM51.766 4.516h-.29v-1.08H49.45v9.302h2.026V7.874c0-1.66.767-2.624 2.278-2.624h1.283V3.204h-.743c-1.401 0-1.997.528-2.528 1.312z" fill="#909090"/></svg>